<svg width="16" height="16" viewBox="0 0 16 16" fill="none" xmlns="http://www.w3.org/2000/svg">
<path fill-rule="evenodd" clip-rule="evenodd" d="M12.6663 2.00033H13.333C14.0663 2.00033 14.6663 2.60033 14.6663 3.33366V14.0003C14.6663 14.7337 14.0663 15.3337 13.333 15.3337H2.66634C1.93301 15.3337 1.33301 14.7337 1.33301 14.0003V3.33366C1.33301 2.60033 1.93301 2.00033 2.66634 2.00033H3.33301V1.33366C3.33301 0.966992 3.63301 0.666992 3.99967 0.666992C4.36634 0.666992 4.66634 0.966992 4.66634 1.33366V2.00033H11.333V1.33366C11.333 0.966992 11.633 0.666992 11.9997 0.666992C12.3663 0.666992 12.6663 0.966992 12.6663 1.33366V2.00033ZM3.33301 14.0003H12.6663C13.033 14.0003 13.333 13.7003 13.333 13.3337V5.33366H2.66634V13.3337C2.66634 13.7003 2.96634 14.0003 3.33301 14.0003Z" fill="#921B1D"/>
</svg>
