<svg width="16" height="16" viewBox="0 0 16 16" fill="none" xmlns="http://www.w3.org/2000/svg">
<path fill-rule="evenodd" clip-rule="evenodd" d="M12.6663 1.99935H13.333C14.0663 1.99935 14.6663 2.59935 14.6663 3.33268V13.9993C14.6663 14.7327 14.0663 15.3327 13.333 15.3327H2.66634C1.93301 15.3327 1.33301 14.7327 1.33301 13.9993V3.33268C1.33301 2.59935 1.93301 1.99935 2.66634 1.99935H3.33301V1.33268C3.33301 0.966016 3.63301 0.666016 3.99967 0.666016C4.36634 0.666016 4.66634 0.966016 4.66634 1.33268V1.99935H11.333V1.33268C11.333 0.966016 11.633 0.666016 11.9997 0.666016C12.3663 0.666016 12.6663 0.966016 12.6663 1.33268V1.99935ZM3.33301 13.9993H12.6663C13.033 13.9993 13.333 13.6993 13.333 13.3327V5.33268H2.66634V13.3327C2.66634 13.6993 2.96634 13.9993 3.33301 13.9993Z" fill="black" fill-opacity="0.4"/>
</svg>
