<svg width="16" height="16" viewBox="0 0 16 16" fill="none" xmlns="http://www.w3.org/2000/svg">
<path d="M13.7111 3.75556H10.9556V3.06667C10.9556 2.51855 10.7378 1.99289 10.3502 1.60531C9.96267 1.21774 9.437 1 8.88889 1H7.51111C6.963 1 6.43733 1.21774 6.04976 1.60531C5.66218 1.99289 5.44444 2.51855 5.44444 3.06667V3.75556H2.68889C2.50618 3.75556 2.33096 3.82814 2.20177 3.95733C2.07258 4.08652 2 4.26174 2 4.44444C2 4.62715 2.07258 4.80237 2.20177 4.93156C2.33096 5.06075 2.50618 5.13333 2.68889 5.13333H3.37778V12.7111C3.37778 13.2592 3.59552 13.7849 3.98309 14.1725C4.37067 14.56 4.89633 14.7778 5.44444 14.7778H10.9556C11.5037 14.7778 12.0293 14.56 12.4169 14.1725C12.8045 13.7849 13.0222 13.2592 13.0222 12.7111V5.13333H13.7111C13.8938 5.13333 14.069 5.06075 14.1982 4.93156C14.3274 4.80237 14.4 4.62715 14.4 4.44444C14.4 4.26174 14.3274 4.08652 14.1982 3.95733C14.069 3.82814 13.8938 3.75556 13.7111 3.75556ZM6.82222 3.06667C6.82222 2.88396 6.8948 2.70874 7.02399 2.57955C7.15318 2.45036 7.32841 2.37778 7.51111 2.37778H8.88889C9.07159 2.37778 9.24681 2.45036 9.37601 2.57955C9.5052 2.70874 9.57778 2.88396 9.57778 3.06667V3.75556H6.82222V3.06667ZM11.6444 12.7111C11.6444 12.8938 11.5719 13.069 11.4427 13.1982C11.3135 13.3274 11.1383 13.4 10.9556 13.4H5.44444C5.26174 13.4 5.08652 13.3274 4.95733 13.1982C4.82813 13.069 4.75556 12.8938 4.75556 12.7111V5.13333H11.6444V12.7111Z" fill="#FFEDEB"/>
</svg>
