<svg width="24" height="25" viewBox="0 0 24 25" fill="none" xmlns="http://www.w3.org/2000/svg">
<path d="M12.3 12.4305C12.8336 11.9687 13.2616 11.3974 13.5549 10.7555C13.8482 10.1137 14 9.41623 14 8.71053C14 7.38444 13.4732 6.11267 12.5355 5.17499C11.5979 4.23731 10.3261 3.71053 9 3.71053C7.67392 3.71053 6.40215 4.23731 5.46447 5.17499C4.52678 6.11267 4 7.38444 4 8.71053C3.99999 9.41623 4.1518 10.1137 4.44513 10.7555C4.73845 11.3974 5.16642 11.9687 5.7 12.4305C4.30014 13.0644 3.11247 14.0881 2.27898 15.3791C1.4455 16.6701 1.00147 18.1738 1 19.7105C1 19.9757 1.10536 20.2301 1.29289 20.4176C1.48043 20.6052 1.73478 20.7105 2 20.7105C2.26522 20.7105 2.51957 20.6052 2.70711 20.4176C2.89464 20.2301 3 19.9757 3 19.7105C3 18.1192 3.63214 16.5931 4.75736 15.4679C5.88258 14.3427 7.4087 13.7105 9 13.7105C10.5913 13.7105 12.1174 14.3427 13.2426 15.4679C14.3679 16.5931 15 18.1192 15 19.7105C15 19.9757 15.1054 20.2301 15.2929 20.4176C15.4804 20.6052 15.7348 20.7105 16 20.7105C16.2652 20.7105 16.5196 20.6052 16.7071 20.4176C16.8946 20.2301 17 19.9757 17 19.7105C16.9985 18.1738 16.5545 16.6701 15.721 15.3791C14.8875 14.0881 13.6999 13.0644 12.3 12.4305ZM9 11.7105C8.40666 11.7105 7.82664 11.5346 7.33329 11.2049C6.83994 10.8753 6.45542 10.4068 6.22836 9.85858C6.0013 9.3104 5.94189 8.7072 6.05764 8.12525C6.1734 7.54331 6.45912 7.00876 6.87868 6.58921C7.29824 6.16965 7.83279 5.88393 8.41473 5.76817C8.99667 5.65241 9.59987 5.71182 10.1481 5.93889C10.6962 6.16595 11.1648 6.55047 11.4944 7.04381C11.8241 7.53716 12 8.11718 12 8.71053C12 9.50618 11.6839 10.2692 11.1213 10.8318C10.5587 11.3945 9.79565 11.7105 9 11.7105ZM18.74 12.0305C19.38 11.3099 19.798 10.4196 19.9438 9.46686C20.0896 8.51415 19.9569 7.5396 19.5618 6.66053C19.1666 5.78145 18.5258 5.03532 17.7165 4.51195C16.9071 3.98858 15.9638 3.71027 15 3.71053C14.7348 3.71053 14.4804 3.81588 14.2929 4.00342C14.1054 4.19096 14 4.44531 14 4.71053C14 4.97574 14.1054 5.2301 14.2929 5.41763C14.4804 5.60517 14.7348 5.71053 15 5.71053C15.7956 5.71053 16.5587 6.0266 17.1213 6.58921C17.6839 7.15181 18 7.91488 18 8.71053C17.9986 9.23577 17.8593 9.75143 17.5961 10.2059C17.3328 10.6605 16.9549 11.0379 16.5 11.3005C16.3517 11.386 16.2279 11.5082 16.1404 11.6553C16.0528 11.8023 16.0045 11.9694 16 12.1405C15.9958 12.3103 16.0349 12.4783 16.1137 12.6288C16.1924 12.7792 16.3081 12.9072 16.45 13.0005L16.84 13.2605L16.97 13.3305C18.1754 13.9022 19.1923 14.8065 19.901 15.9368C20.6096 17.0672 20.9805 18.3765 20.97 19.7105C20.97 19.9757 21.0754 20.2301 21.2629 20.4176C21.4504 20.6052 21.7048 20.7105 21.97 20.7105C22.2352 20.7105 22.4896 20.6052 22.6771 20.4176C22.8646 20.2301 22.97 19.9757 22.97 19.7105C22.9782 18.176 22.5938 16.6648 21.8535 15.3206C21.1131 13.9764 20.0413 12.8438 18.74 12.0305Z" fill="#FFE6E6"/>
</svg>
