<svg width="22" height="18" viewBox="0 0 22 18" fill="none" xmlns="http://www.w3.org/2000/svg">
<path d="M11.3 9.43094C11.8336 8.96907 12.2616 8.39782 12.5549 7.75596C12.8482 7.1141 13 6.41665 13 5.71094C13 4.38486 12.4732 3.11309 11.5355 2.1754C10.5979 1.23772 9.32608 0.710938 8 0.710938C6.67392 0.710938 5.40215 1.23772 4.46447 2.1754C3.52678 3.11309 3 4.38486 3 5.71094C2.99999 6.41665 3.1518 7.1141 3.44513 7.75596C3.73845 8.39782 4.16642 8.96907 4.7 9.43094C3.30014 10.0648 2.11247 11.0885 1.27898 12.3795C0.445495 13.6705 0.00147185 15.1742 0 16.7109C0 16.9762 0.105357 17.2305 0.292893 17.418C0.48043 17.6056 0.734784 17.7109 1 17.7109C1.26522 17.7109 1.51957 17.6056 1.70711 17.418C1.89464 17.2305 2 16.9762 2 16.7109C2 15.1196 2.63214 13.5935 3.75736 12.4683C4.88258 11.3431 6.4087 10.7109 8 10.7109C9.5913 10.7109 11.1174 11.3431 12.2426 12.4683C13.3679 13.5935 14 15.1196 14 16.7109C14 16.9762 14.1054 17.2305 14.2929 17.418C14.4804 17.6056 14.7348 17.7109 15 17.7109C15.2652 17.7109 15.5196 17.6056 15.7071 17.418C15.8946 17.2305 16 16.9762 16 16.7109C15.9985 15.1742 15.5545 13.6705 14.721 12.3795C13.8875 11.0885 12.6999 10.0648 11.3 9.43094ZM8 8.71094C7.40666 8.71094 6.82664 8.53499 6.33329 8.20535C5.83994 7.8757 5.45542 7.40717 5.22836 6.85899C5.0013 6.31081 4.94189 5.70761 5.05764 5.12567C5.1734 4.54372 5.45912 4.00918 5.87868 3.58962C6.29824 3.17006 6.83279 2.88434 7.41473 2.76858C7.99667 2.65283 8.59987 2.71224 9.14805 2.9393C9.69623 3.16636 10.1648 3.55088 10.4944 4.04423C10.8241 4.53757 11 5.11759 11 5.71094C11 6.50659 10.6839 7.26965 10.1213 7.83226C9.55871 8.39487 8.79565 8.71094 8 8.71094ZM17.74 9.03094C18.38 8.31027 18.798 7.41999 18.9438 6.46728C19.0896 5.51456 18.9569 4.54001 18.5618 3.66094C18.1666 2.78186 17.5258 2.03573 16.7165 1.51236C15.9071 0.988988 14.9638 0.71068 14 0.710938C13.7348 0.710938 13.4804 0.816294 13.2929 1.00383C13.1054 1.19137 13 1.44572 13 1.71094C13 1.97615 13.1054 2.23051 13.2929 2.41804C13.4804 2.60558 13.7348 2.71094 14 2.71094C14.7956 2.71094 15.5587 3.02701 16.1213 3.58962C16.6839 4.15223 17 4.91529 17 5.71094C16.9986 6.23618 16.8593 6.75184 16.5961 7.20636C16.3328 7.66088 15.9549 8.03832 15.5 8.30094C15.3517 8.38646 15.2279 8.5086 15.1404 8.65568C15.0528 8.80275 15.0045 8.96984 15 9.14094C14.9958 9.3107 15.0349 9.47873 15.1137 9.6292C15.1924 9.77966 15.3081 9.90759 15.45 10.0009L15.84 10.2609L15.97 10.3309C17.1754 10.9027 18.1923 11.8069 18.901 12.9373C19.6096 14.0676 19.9805 15.3769 19.97 16.7109C19.97 16.9762 20.0754 17.2305 20.2629 17.418C20.4504 17.6056 20.7048 17.7109 20.97 17.7109C21.2352 17.7109 21.4896 17.6056 21.6771 17.418C21.8646 17.2305 21.97 16.9762 21.97 16.7109C21.9782 15.1764 21.5938 13.6652 20.8535 12.321C20.1131 10.9768 19.0413 9.84425 17.74 9.03094Z" fill="#605BFF"/>
</svg>
