<svg width="24" height="25" viewBox="0 0 24 25" fill="none" xmlns="http://www.w3.org/2000/svg">
<path d="M12.3 12.4309C12.8336 11.9691 13.2616 11.3978 13.5549 10.756C13.8482 10.1141 14 9.41665 14 8.71094C14 7.38486 13.4732 6.11309 12.5355 5.1754C11.5979 4.23772 10.3261 3.71094 9 3.71094C7.67392 3.71094 6.40215 4.23772 5.46447 5.1754C4.52678 6.11309 4 7.38486 4 8.71094C3.99999 9.41665 4.1518 10.1141 4.44513 10.756C4.73845 11.3978 5.16642 11.9691 5.7 12.4309C4.30014 13.0648 3.11247 14.0885 2.27898 15.3795C1.4455 16.6705 1.00147 18.1742 1 19.7109C1 19.9762 1.10536 20.2305 1.29289 20.418C1.48043 20.6056 1.73478 20.7109 2 20.7109C2.26522 20.7109 2.51957 20.6056 2.70711 20.418C2.89464 20.2305 3 19.9762 3 19.7109C3 18.1196 3.63214 16.5935 4.75736 15.4683C5.88258 14.3431 7.4087 13.7109 9 13.7109C10.5913 13.7109 12.1174 14.3431 13.2426 15.4683C14.3679 16.5935 15 18.1196 15 19.7109C15 19.9762 15.1054 20.2305 15.2929 20.418C15.4804 20.6056 15.7348 20.7109 16 20.7109C16.2652 20.7109 16.5196 20.6056 16.7071 20.418C16.8946 20.2305 17 19.9762 17 19.7109C16.9985 18.1742 16.5545 16.6705 15.721 15.3795C14.8875 14.0885 13.6999 13.0648 12.3 12.4309ZM9 11.7109C8.40666 11.7109 7.82664 11.535 7.33329 11.2053C6.83994 10.8757 6.45542 10.4072 6.22836 9.85899C6.0013 9.31081 5.94189 8.70761 6.05764 8.12567C6.1734 7.54372 6.45912 7.00918 6.87868 6.58962C7.29824 6.17006 7.83279 5.88434 8.41473 5.76858C8.99667 5.65283 9.59987 5.71224 10.1481 5.9393C10.6962 6.16636 11.1648 6.55088 11.4944 7.04423C11.8241 7.53757 12 8.11759 12 8.71094C12 9.50659 11.6839 10.2696 11.1213 10.8323C10.5587 11.3949 9.79565 11.7109 9 11.7109ZM18.74 12.0309C19.38 11.3103 19.798 10.42 19.9438 9.46728C20.0896 8.51456 19.9569 7.54001 19.5618 6.66094C19.1666 5.78186 18.5258 5.03573 17.7165 4.51236C16.9071 3.98899 15.9638 3.71068 15 3.71094C14.7348 3.71094 14.4804 3.81629 14.2929 4.00383C14.1054 4.19137 14 4.44572 14 4.71094C14 4.97615 14.1054 5.23051 14.2929 5.41804C14.4804 5.60558 14.7348 5.71094 15 5.71094C15.7956 5.71094 16.5587 6.02701 17.1213 6.58962C17.6839 7.15223 18 7.91529 18 8.71094C17.9986 9.23618 17.8593 9.75184 17.5961 10.2064C17.3328 10.6609 16.9549 11.0383 16.5 11.3009C16.3517 11.3865 16.2279 11.5086 16.1404 11.6557C16.0528 11.8028 16.0045 11.9698 16 12.1409C15.9958 12.3107 16.0349 12.4787 16.1137 12.6292C16.1924 12.7797 16.3081 12.9076 16.45 13.0009L16.84 13.2609L16.97 13.3309C18.1754 13.9027 19.1923 14.8069 19.901 15.9373C20.6096 17.0676 20.9805 18.3769 20.97 19.7109C20.97 19.9762 21.0754 20.2305 21.2629 20.418C21.4504 20.6056 21.7048 20.7109 21.97 20.7109C22.2352 20.7109 22.4896 20.6056 22.6771 20.418C22.8646 20.2305 22.97 19.9762 22.97 19.7109C22.9782 18.1764 22.5938 16.6652 21.8535 15.321C21.1131 13.9768 20.0413 12.8442 18.74 12.0309Z" fill="#0063FF"/>
</svg>
