<svg width="20" height="20" viewBox="0 0 20 20" fill="none" xmlns="http://www.w3.org/2000/svg">
<path d="M5.33333 14.6667H6.28333L12.8 8.15L11.85 7.2L5.33333 13.7167V14.6667ZM4 16V13.1667L12.8 4.38333C12.9333 4.26111 13.0806 4.16667 13.2417 4.1C13.4028 4.03333 13.5722 4 13.75 4C13.9278 4 14.1 4.03333 14.2667 4.1C14.4333 4.16667 14.5778 4.26667 14.7 4.4L15.6167 5.33333C15.75 5.45556 15.8472 5.6 15.9083 5.76667C15.9694 5.93333 16 6.1 16 6.26667C16 6.44444 15.9694 6.61389 15.9083 6.775C15.8472 6.93611 15.75 7.08333 15.6167 7.21667L6.83333 16H4ZM12.3167 7.68333L11.85 7.2L12.8 8.15L12.3167 7.68333Z" fill="#1C1C1C" fill-opacity="0.4"/>
</svg>
