<svg width="24" height="25" viewBox="0 0 24 25" fill="none" xmlns="http://www.w3.org/2000/svg">
<path d="M15.29 10.5005L12.51 13.2805C12.3435 13.2363 12.1722 13.2128 12 13.2105C11.4695 13.2105 10.9608 13.4212 10.5858 13.7963C10.2107 14.1714 9.99997 14.6801 9.99997 15.2105C10.0022 15.3828 10.0257 15.5541 10.07 15.7205L9.28997 16.5005C9.19624 16.5935 9.12185 16.7041 9.07108 16.8259C9.02031 16.9478 8.99417 17.0785 8.99417 17.2105C8.99417 17.3425 9.02031 17.4732 9.07108 17.5951C9.12185 17.717 9.19624 17.8276 9.28997 17.9205C9.38293 18.0143 9.49353 18.0886 9.61539 18.1394C9.73725 18.1902 9.86796 18.2163 9.99997 18.2163C10.132 18.2163 10.2627 18.1902 10.3845 18.1394C10.5064 18.0886 10.617 18.0143 10.71 17.9205L11.49 17.1405C11.6564 17.1848 11.8277 17.2083 12 17.2105C12.5304 17.2105 13.0391 16.9998 13.4142 16.6247C13.7893 16.2497 14 15.741 14 15.2105C13.9977 15.0383 13.9742 14.867 13.93 14.7005L16.71 11.9205C16.8983 11.7322 17.0041 11.4768 17.0041 11.2105C17.0041 10.9442 16.8983 10.6888 16.71 10.5005C16.5217 10.3122 16.2663 10.2064 16 10.2064C15.7337 10.2064 15.4783 10.3122 15.29 10.5005ZM12 4.21053C10.6868 4.21053 9.38639 4.46918 8.17313 4.97173C6.95988 5.47428 5.85749 6.21087 4.9289 7.13946C3.05354 9.01482 1.99997 11.5584 1.99997 14.2105C1.99505 16.1911 2.58369 18.1277 3.68997 19.7705C3.83849 19.9907 4.06838 20.1428 4.32905 20.1934C4.58973 20.244 4.85984 20.189 5.07997 20.0405C5.3001 19.892 5.45221 19.6621 5.50285 19.4014C5.55348 19.1408 5.49849 18.8707 5.34997 18.6505C4.54449 17.4461 4.08125 16.0455 4.00972 14.5982C3.9382 13.151 4.26106 11.7116 4.94385 10.4336C5.62664 9.15554 6.64372 8.08696 7.88647 7.34191C9.12922 6.59687 10.551 6.20334 12 6.20334C13.4489 6.20334 14.8707 6.59687 16.1135 7.34191C17.3562 8.08696 18.3733 9.15554 19.0561 10.4336C19.7389 11.7116 20.0617 13.151 19.9902 14.5982C19.9187 16.0455 19.4555 17.4461 18.65 18.6505C18.5763 18.7595 18.5248 18.8819 18.4985 19.0108C18.4721 19.1396 18.4715 19.2724 18.4966 19.4015C18.5217 19.5307 18.572 19.6536 18.6446 19.7632C18.7173 19.8729 18.8108 19.9671 18.92 20.0405C19.0855 20.1518 19.2805 20.211 19.48 20.2105C19.6438 20.2108 19.8051 20.1708 19.9499 20.0941C20.0946 20.0173 20.2182 19.9062 20.31 19.7705C21.4162 18.1277 22.0049 16.1911 22 14.2105C22 11.5584 20.9464 9.01482 19.071 7.13946C17.1957 5.26409 14.6521 4.21053 12 4.21053Z" fill="#FFE6E6"/>
</svg>
