<svg width="13" height="14" viewBox="0 0 13 14" fill="none" xmlns="http://www.w3.org/2000/svg">
<path d="M12.0109 2.86542H9.25536V2.17653C9.25536 1.62842 9.03762 1.10275 8.65005 0.715176C8.26247 0.327601 7.73681 0.109863 7.18869 0.109863H5.81092C5.2628 0.109863 4.73714 0.327601 4.34956 0.715176C3.96199 1.10275 3.74425 1.62842 3.74425 2.17653V2.86542H0.988694C0.805989 2.86542 0.630767 2.938 0.501576 3.06719C0.372384 3.19638 0.299805 3.3716 0.299805 3.55431C0.299805 3.73701 0.372384 3.91223 0.501576 4.04143C0.630767 4.17062 0.805989 4.2432 0.988694 4.2432H1.67758V11.821C1.67758 12.3691 1.89532 12.8948 2.2829 13.2823C2.67047 13.6699 3.19613 13.8876 3.74425 13.8876H9.25536C9.80347 13.8876 10.3291 13.6699 10.7167 13.2823C11.1043 12.8948 11.322 12.3691 11.322 11.821V4.2432H12.0109C12.1936 4.2432 12.3688 4.17062 12.498 4.04143C12.6272 3.91223 12.6998 3.73701 12.6998 3.55431C12.6998 3.3716 12.6272 3.19638 12.498 3.06719C12.3688 2.938 12.1936 2.86542 12.0109 2.86542ZM5.12203 2.17653C5.12203 1.99383 5.19461 1.8186 5.3238 1.68941C5.45299 1.56022 5.62821 1.48764 5.81092 1.48764H7.18869C7.3714 1.48764 7.54662 1.56022 7.67581 1.68941C7.805 1.8186 7.87758 1.99383 7.87758 2.17653V2.86542H5.12203V2.17653ZM9.94425 11.821C9.94425 12.0037 9.87167 12.1789 9.74248 12.3081C9.61329 12.4373 9.43806 12.5099 9.25536 12.5099H3.74425C3.56154 12.5099 3.38632 12.4373 3.25713 12.3081C3.12794 12.1789 3.05536 12.0037 3.05536 11.821V4.2432H9.94425V11.821Z" fill="#D94535"/>
</svg>
