<svg width="14" height="14" viewBox="0 0 14 14" fill="none" xmlns="http://www.w3.org/2000/svg">
<path d="M11.6663 0.333008H2.33301C1.80257 0.333008 1.29387 0.543722 0.918794 0.918794C0.543722 1.29387 0.333008 1.80257 0.333008 2.33301V3.11301C0.332912 3.3883 0.389652 3.66065 0.499675 3.91301V3.95301C0.593861 4.16699 0.727269 4.36145 0.893008 4.52634L4.99967 8.60634V12.9997C4.99945 13.113 5.0281 13.2245 5.08292 13.3236C5.13774 13.4228 5.21693 13.5063 5.31301 13.5663C5.4191 13.6321 5.54152 13.6667 5.66634 13.6663C5.7707 13.6657 5.87346 13.6406 5.96634 13.593L8.63301 12.2597C8.74295 12.2043 8.83541 12.1195 8.90012 12.0148C8.96484 11.9101 8.9993 11.7895 8.99967 11.6663V8.60634L13.0797 4.52634C13.2454 4.36145 13.3788 4.16699 13.473 3.95301V3.91301C13.5922 3.66263 13.6581 3.39019 13.6663 3.11301V2.33301C13.6663 1.80257 13.4556 1.29387 13.0806 0.918794C12.7055 0.543722 12.1968 0.333008 11.6663 0.333008ZM7.85967 7.85967C7.79789 7.92197 7.749 7.99585 7.71583 8.07707C7.68265 8.1583 7.66583 8.24527 7.66634 8.33301V11.253L6.33301 11.9197V8.33301C6.33351 8.24527 6.3167 8.1583 6.28352 8.07707C6.25034 7.99585 6.20146 7.92197 6.13967 7.85967L2.60634 4.33301H11.393L7.85967 7.85967ZM12.333 2.99967H1.66634V2.33301C1.66634 2.1562 1.73658 1.98663 1.8616 1.8616C1.98663 1.73658 2.1562 1.66634 2.33301 1.66634H11.6663C11.8432 1.66634 12.0127 1.73658 12.1377 1.8616C12.2628 1.98663 12.333 2.1562 12.333 2.33301V2.99967Z" fill="#921B1D"/>
</svg>
