<svg width="14" height="14" viewBox="0 0 14 14" fill="none" xmlns="http://www.w3.org/2000/svg">
<path d="M11.6663 0.333984H2.33301C1.80257 0.333984 1.29387 0.544698 0.918794 0.919771C0.543722 1.29484 0.333008 1.80355 0.333008 2.33398V3.11398C0.332912 3.38928 0.389652 3.66163 0.499675 3.91398V3.95398C0.593861 4.16797 0.727269 4.36242 0.893008 4.52732L4.99967 8.60732V13.0007C4.99945 13.1139 5.0281 13.2254 5.08292 13.3246C5.13774 13.4237 5.21693 13.5073 5.31301 13.5673C5.4191 13.6331 5.54152 13.6677 5.66634 13.6673C5.7707 13.6667 5.87346 13.6416 5.96634 13.594L8.63301 12.2607C8.74295 12.2053 8.83541 12.1205 8.90012 12.0158C8.96484 11.911 8.9993 11.7904 8.99967 11.6673V8.60732L13.0797 4.52732C13.2454 4.36242 13.3788 4.16797 13.473 3.95398V3.91398C13.5922 3.6636 13.6581 3.39117 13.6663 3.11398V2.33398C13.6663 1.80355 13.4556 1.29484 13.0806 0.919771C12.7055 0.544698 12.1968 0.333984 11.6663 0.333984ZM7.85967 7.86065C7.79789 7.92294 7.749 7.99682 7.71583 8.07805C7.68265 8.15927 7.66583 8.24625 7.66634 8.33398V11.254L6.33301 11.9207V8.33398C6.33351 8.24625 6.3167 8.15927 6.28352 8.07805C6.25034 7.99682 6.20146 7.92294 6.13967 7.86065L2.60634 4.33398H11.393L7.85967 7.86065ZM12.333 3.00065H1.66634V2.33398C1.66634 2.15717 1.73658 1.9876 1.8616 1.86258C1.98663 1.73756 2.1562 1.66732 2.33301 1.66732H11.6663C11.8432 1.66732 12.0127 1.73756 12.1377 1.86258C12.2628 1.9876 12.333 2.15717 12.333 2.33398V3.00065Z" fill="black" fill-opacity="0.4"/>
</svg>
