<svg width="13" height="12" viewBox="0 0 13 12" fill="none" xmlns="http://www.w3.org/2000/svg">
<path d="M7.78494 6L12.0849 1.71C12.2732 1.5217 12.379 1.2663 12.379 1C12.379 0.733701 12.2732 0.478306 12.0849 0.290002C11.8966 0.101699 11.6412 -0.00408936 11.3749 -0.00408936C11.1086 -0.00408936 10.8532 0.101699 10.6649 0.290002L6.37494 4.59L2.08494 0.290002C1.89664 0.101699 1.64124 -0.00408936 1.37494 -0.00408936C1.10864 -0.00408935 0.853243 0.101699 0.664939 0.290002C0.476635 0.478306 0.370847 0.733701 0.370847 1C0.370847 1.2663 0.476635 1.5217 0.664939 1.71L4.96494 6L0.664939 10.29C0.571211 10.383 0.496816 10.4936 0.446048 10.6154C0.395279 10.7373 0.369141 10.868 0.369141 11C0.369141 11.132 0.395279 11.2627 0.446048 11.3846C0.496816 11.5064 0.571211 11.617 0.664939 11.71C0.757902 11.8037 0.868503 11.8781 0.990362 11.9289C1.11222 11.9797 1.24293 12.0058 1.37494 12.0058C1.50695 12.0058 1.63766 11.9797 1.75952 11.9289C1.88138 11.8781 1.99198 11.8037 2.08494 11.71L6.37494 7.41L10.6649 11.71C10.7579 11.8037 10.8685 11.8781 10.9904 11.9289C11.1122 11.9797 11.2429 12.0058 11.3749 12.0058C11.507 12.0058 11.6377 11.9797 11.7595 11.9289C11.8814 11.8781 11.992 11.8037 12.0849 11.71C12.1787 11.617 12.2531 11.5064 12.3038 11.3846C12.3546 11.2627 12.3807 11.132 12.3807 11C12.3807 10.868 12.3546 10.7373 12.3038 10.6154C12.2531 10.4936 12.1787 10.383 12.0849 10.29L7.78494 6Z" fill="#8BC149"/>
</svg>
