<svg width="13" height="19" viewBox="0 0 13 19" fill="none" xmlns="http://www.w3.org/2000/svg">
<path d="M8.01406 18.7842L1.28906 11.7842V9.78418H4.78906C5.6724 9.78418 6.4349 9.49668 7.07656 8.92168C7.71823 8.34668 8.10573 7.63418 8.23906 6.78418H0.289062V4.78418H7.93906C7.65573 4.20085 7.2349 3.72168 6.67656 3.34668C6.11823 2.97168 5.48906 2.78418 4.78906 2.78418H0.289062V0.78418H12.2891V2.78418H9.03906C9.2724 3.06751 9.48073 3.37585 9.66406 3.70918C9.8474 4.04251 9.98906 4.40085 10.0891 4.78418H12.2891V6.78418H10.2641C10.1307 8.20085 9.5474 9.38835 8.51406 10.3467C7.48073 11.305 6.23906 11.7842 4.78906 11.7842H4.06406L10.7891 18.7842H8.01406Z" fill="#605BFF"/>
</svg>
