<svg width="6" height="7" viewBox="0 0 6 7" fill="none" xmlns="http://www.w3.org/2000/svg">
<path d="M4 2.78906H5C5.26522 2.78906 5.51957 2.89442 5.70711 3.08196C5.89464 3.26949 6 3.52385 6 3.78906C6 4.05428 5.89464 4.30863 5.70711 4.49617C5.51957 4.68371 5.26522 4.78906 5 4.78906H4V5.78906C4 6.05428 3.89464 6.30863 3.70711 6.49617C3.51957 6.68371 3.26522 6.78906 3 6.78906C2.73478 6.78906 2.48043 6.68371 2.29289 6.49617C2.10536 6.30863 2 6.05428 2 5.78906V4.78906H1C0.734784 4.78906 0.480429 4.68371 0.292892 4.49617C0.105356 4.30863 0 4.05428 0 3.78906C0 3.52385 0.105356 3.26949 0.292892 3.08196C0.480429 2.89442 0.734784 2.78906 1 2.78906H2V1.78906C2 1.52385 2.10536 1.26949 2.29289 1.08196C2.48043 0.89442 2.73478 0.789062 3 0.789062C3.26522 0.789062 3.51957 0.89442 3.70711 1.08196C3.89464 1.26949 4 1.52385 4 1.78906V2.78906Z" fill="#921B1D"/>
</svg>
