<svg width="14" height="14" viewBox="0 0 14 14" fill="none" xmlns="http://www.w3.org/2000/svg">
<path d="M13.3496 13.3563C13.2563 13.4482 13.1306 13.4998 12.9996 13.5C12.8668 13.4994 12.7393 13.448 12.6434 13.3563L9.94336 10.65C8.80622 11.6051 7.34425 12.0844 5.86236 11.9878C4.38046 11.8912 2.99306 11.2263 1.98951 10.1316C0.985965 9.03701 0.443754 7.5972 0.475967 6.11251C0.508179 4.62782 1.11233 3.21289 2.16241 2.16281C3.21249 1.11272 4.62743 0.508576 6.11212 0.476363C7.59681 0.444151 9.03661 0.986362 10.1313 1.98991C11.2259 2.99346 11.8908 4.38086 11.9874 5.86276C12.084 7.34465 11.6047 8.80662 10.6496 9.94376L13.3496 12.6438C13.3969 12.6903 13.4344 12.7457 13.46 12.8069C13.4856 12.8681 13.4988 12.9337 13.4988 13C13.4988 13.0663 13.4856 13.132 13.46 13.1931C13.4344 13.2543 13.3969 13.3097 13.3496 13.3563ZM6.24961 11C7.18907 11 8.10743 10.7214 8.88857 10.1995C9.6697 9.67755 10.2785 8.9357 10.638 8.06775C10.9976 7.1998 11.0916 6.24474 10.9083 5.32333C10.7251 4.40192 10.2727 3.55555 9.60837 2.89125C8.94407 2.22695 8.0977 1.77456 7.17629 1.59128C6.25488 1.408 5.29981 1.50206 4.43186 1.86158C3.56391 2.22109 2.82206 2.82991 2.30013 3.61105C1.77819 4.39218 1.49961 5.31054 1.49961 6.25001C1.50126 7.50928 2.00224 8.7165 2.89268 9.60694C3.78312 10.4974 4.99034 10.9984 6.24961 11Z" fill="#4186F3" fill-opacity="0.87"/>
</svg>
