<svg width="24" height="25" viewBox="0 0 24 25" fill="none" xmlns="http://www.w3.org/2000/svg">
<path d="M22 16.2105H19.82C19.9364 15.8898 19.9973 15.5517 20 15.2105V10.2105C20 9.41486 19.6839 8.6518 19.1213 8.08919C18.5587 7.52658 17.7956 7.21051 17 7.21051H11C10.2044 7.21051 9.44129 7.52658 8.87868 8.08919C8.31607 8.6518 8 9.41486 8 10.2105V15.2105C8.0027 15.5517 8.06358 15.8898 8.18 16.2105H7C6.73478 16.2105 6.48043 16.1052 6.29289 15.9176C6.10536 15.7301 6 15.4757 6 15.2105V5.21051C6 4.41486 5.68393 3.6518 5.12132 3.08919C4.55871 2.52658 3.79565 2.21051 3 2.21051H2C1.73478 2.21051 1.48043 2.31587 1.29289 2.5034C1.10536 2.69094 1 2.94529 1 3.21051C1 3.47573 1.10536 3.73008 1.29289 3.91762C1.48043 4.10515 1.73478 4.21051 2 4.21051H3C3.26522 4.21051 3.51957 4.31587 3.70711 4.5034C3.89464 4.69094 4 4.94529 4 5.21051V15.2105C4.00369 15.8674 4.22288 16.5049 4.62392 17.0252C5.02497 17.5455 5.58569 17.9197 6.22 18.0905C6.03583 18.5411 5.96406 19.0296 6.01087 19.5141C6.05767 19.9986 6.22166 20.4644 6.48867 20.8714C6.75568 21.2783 7.11771 21.6142 7.5435 21.85C7.96929 22.0858 8.44607 22.2145 8.93269 22.2249C9.41931 22.2354 9.90116 22.1272 10.3367 21.9099C10.7722 21.6925 11.1482 21.3725 11.4324 20.9773C11.7167 20.5822 11.9004 20.1238 11.968 19.6418C12.0355 19.1597 11.9847 18.6685 11.82 18.2105H15.18C15.0155 18.6636 14.9627 19.1497 15.0259 19.6276C15.0892 20.1055 15.2666 20.5611 15.5433 20.9559C15.82 21.3506 16.1877 21.6729 16.6154 21.8954C17.043 22.1179 17.5179 22.234 18 22.234C18.4821 22.234 18.957 22.1179 19.3846 21.8954C19.8123 21.6729 20.18 21.3506 20.4567 20.9559C20.7334 20.5611 20.9108 20.1055 20.9741 19.6276C21.0373 19.1497 20.9845 18.6636 20.82 18.2105H22C22.2652 18.2105 22.5196 18.1052 22.7071 17.9176C22.8946 17.7301 23 17.4757 23 17.2105C23 16.9453 22.8946 16.6909 22.7071 16.5034C22.5196 16.3159 22.2652 16.2105 22 16.2105ZM9 20.2105C8.80222 20.2105 8.60888 20.1519 8.44443 20.042C8.27998 19.9321 8.15181 19.7759 8.07612 19.5932C8.00043 19.4105 7.98063 19.2094 8.01921 19.0154C8.0578 18.8214 8.15304 18.6433 8.29289 18.5034C8.43275 18.3636 8.61093 18.2683 8.80491 18.2297C8.99889 18.1911 9.19996 18.2109 9.38268 18.2866C9.56541 18.3623 9.72159 18.4905 9.83147 18.6549C9.94135 18.8194 10 19.0127 10 19.2105C10 19.4757 9.89464 19.7301 9.70711 19.9176C9.51957 20.1052 9.26522 20.2105 9 20.2105ZM11 16.2105C10.7348 16.2105 10.4804 16.1052 10.2929 15.9176C10.1054 15.7301 10 15.4757 10 15.2105V10.2105C10 9.94529 10.1054 9.69094 10.2929 9.5034C10.4804 9.31587 10.7348 9.21051 11 9.21051H17C17.2652 9.21051 17.5196 9.31587 17.7071 9.5034C17.8946 9.69094 18 9.94529 18 10.2105V15.2105C18 15.4757 17.8946 15.7301 17.7071 15.9176C17.5196 16.1052 17.2652 16.2105 17 16.2105H11ZM18 20.2105C17.8022 20.2105 17.6089 20.1519 17.4444 20.042C17.28 19.9321 17.1518 19.7759 17.0761 19.5932C17.0004 19.4105 16.9806 19.2094 17.0192 19.0154C17.0578 18.8214 17.153 18.6433 17.2929 18.5034C17.4327 18.3636 17.6109 18.2683 17.8049 18.2297C17.9989 18.1911 18.2 18.2109 18.3827 18.2866C18.5654 18.3623 18.7216 18.4905 18.8315 18.6549C18.9414 18.8194 19 19.0127 19 19.2105C19 19.4757 18.8946 19.7301 18.7071 19.9176C18.5196 20.1052 18.2652 20.2105 18 20.2105Z" fill="#FFE6E6"/>
</svg>
