<svg width="24" height="25" viewBox="0 0 24 25" fill="none" xmlns="http://www.w3.org/2000/svg">
<path d="M22 16.2109H19.82C19.9364 15.8903 19.9973 15.5521 20 15.2109V10.2109C20 9.41529 19.6839 8.65223 19.1213 8.08962C18.5587 7.52701 17.7956 7.21094 17 7.21094H11C10.2044 7.21094 9.44129 7.52701 8.87868 8.08962C8.31607 8.65223 8 9.41529 8 10.2109V15.2109C8.0027 15.5521 8.06358 15.8903 8.18 16.2109H7C6.73478 16.2109 6.48043 16.1056 6.29289 15.918C6.10536 15.7305 6 15.4762 6 15.2109V5.21094C6 4.41529 5.68393 3.65223 5.12132 3.08962C4.55871 2.52701 3.79565 2.21094 3 2.21094H2C1.73478 2.21094 1.48043 2.31629 1.29289 2.50383C1.10536 2.69137 1 2.94572 1 3.21094C1 3.47615 1.10536 3.73051 1.29289 3.91804C1.48043 4.10558 1.73478 4.21094 2 4.21094H3C3.26522 4.21094 3.51957 4.31629 3.70711 4.50383C3.89464 4.69137 4 4.94572 4 5.21094V15.2109C4.00369 15.8678 4.22288 16.5054 4.62392 17.0256C5.02497 17.5459 5.58569 17.9202 6.22 18.0909C6.03583 18.5415 5.96406 19.0301 6.01087 19.5146C6.05767 19.999 6.22166 20.4648 6.48867 20.8718C6.75568 21.2788 7.11771 21.6146 7.5435 21.8504C7.96929 22.0863 8.44607 22.2149 8.93269 22.2254C9.41931 22.2358 9.90116 22.1277 10.3367 21.9103C10.7722 21.6929 11.1482 21.3729 11.4324 20.9777C11.7167 20.5826 11.9004 20.1242 11.968 19.6422C12.0355 19.1602 11.9847 18.669 11.82 18.2109H15.18C15.0155 18.6641 14.9627 19.1502 15.0259 19.628C15.0892 20.1059 15.2666 20.5615 15.5433 20.9563C15.82 21.351 16.1877 21.6733 16.6154 21.8958C17.043 22.1183 17.5179 22.2345 18 22.2345C18.4821 22.2345 18.957 22.1183 19.3846 21.8958C19.8123 21.6733 20.18 21.351 20.4567 20.9563C20.7334 20.5615 20.9108 20.1059 20.9741 19.628C21.0373 19.1502 20.9845 18.6641 20.82 18.2109H22C22.2652 18.2109 22.5196 18.1056 22.7071 17.918C22.8946 17.7305 23 17.4762 23 17.2109C23 16.9457 22.8946 16.6914 22.7071 16.5038C22.5196 16.3163 22.2652 16.2109 22 16.2109ZM9 20.2109C8.80222 20.2109 8.60888 20.1523 8.44443 20.0424C8.27998 19.9325 8.15181 19.7763 8.07612 19.5936C8.00043 19.4109 7.98063 19.2098 8.01921 19.0158C8.0578 18.8219 8.15304 18.6437 8.29289 18.5038C8.43275 18.364 8.61093 18.2687 8.80491 18.2302C8.99889 18.1916 9.19996 18.2114 9.38268 18.2871C9.56541 18.3627 9.72159 18.4909 9.83147 18.6554C9.94135 18.8198 10 19.0132 10 19.2109C10 19.4762 9.89464 19.7305 9.70711 19.918C9.51957 20.1056 9.26522 20.2109 9 20.2109ZM11 16.2109C10.7348 16.2109 10.4804 16.1056 10.2929 15.918C10.1054 15.7305 10 15.4762 10 15.2109V10.2109C10 9.94572 10.1054 9.69137 10.2929 9.50383C10.4804 9.31629 10.7348 9.21094 11 9.21094H17C17.2652 9.21094 17.5196 9.31629 17.7071 9.50383C17.8946 9.69137 18 9.94572 18 10.2109V15.2109C18 15.4762 17.8946 15.7305 17.7071 15.918C17.5196 16.1056 17.2652 16.2109 17 16.2109H11ZM18 20.2109C17.8022 20.2109 17.6089 20.1523 17.4444 20.0424C17.28 19.9325 17.1518 19.7763 17.0761 19.5936C17.0004 19.4109 16.9806 19.2098 17.0192 19.0158C17.0578 18.8219 17.153 18.6437 17.2929 18.5038C17.4327 18.364 17.6109 18.2687 17.8049 18.2302C17.9989 18.1916 18.2 18.2114 18.3827 18.2871C18.5654 18.3627 18.7216 18.4909 18.8315 18.6554C18.9414 18.8198 19 19.0132 19 19.2109C19 19.4762 18.8946 19.7305 18.7071 19.918C18.5196 20.1056 18.2652 20.2109 18 20.2109Z" fill="#D94535"/>
</svg>
