<svg width="20" height="21" viewBox="0 0 20 21" fill="none" xmlns="http://www.w3.org/2000/svg">
<path d="M7.00001 10.2105H5.00001C4.73479 10.2105 4.48044 10.3159 4.2929 10.5034C4.10537 10.6909 4.00001 10.9453 4.00001 11.2105C4.00001 11.4757 4.10537 11.7301 4.2929 11.9176C4.48044 12.1052 4.73479 12.2105 5.00001 12.2105H7.00001C7.26522 12.2105 7.51958 12.1052 7.70711 11.9176C7.89465 11.7301 8.00001 11.4757 8.00001 11.2105C8.00001 10.9453 7.89465 10.6909 7.70711 10.5034C7.51958 10.3159 7.26522 10.2105 7.00001 10.2105ZM6.00001 8.21052H10C10.2652 8.21052 10.5196 8.10516 10.7071 7.91762C10.8947 7.73009 11 7.47573 11 7.21052C11 6.9453 10.8947 6.69095 10.7071 6.50341C10.5196 6.31587 10.2652 6.21052 10 6.21052H6.00001C5.73479 6.21052 5.48044 6.31587 5.2929 6.50341C5.10537 6.69095 5.00001 6.9453 5.00001 7.21052C5.00001 7.47573 5.10537 7.73009 5.2929 7.91762C5.48044 8.10516 5.73479 8.21052 6.00001 8.21052ZM7.00001 14.2105H5.00001C4.73479 14.2105 4.48044 14.3159 4.2929 14.5034C4.10537 14.6909 4.00001 14.9453 4.00001 15.2105C4.00001 15.4757 4.10537 15.7301 4.2929 15.9176C4.48044 16.1052 4.73479 16.2105 5.00001 16.2105H7.00001C7.26522 16.2105 7.51958 16.1052 7.70711 15.9176C7.89465 15.7301 8.00001 15.4757 8.00001 15.2105C8.00001 14.9453 7.89465 14.6909 7.70711 14.5034C7.51958 14.3159 7.26522 14.2105 7.00001 14.2105ZM19 10.2105H16V1.21052C16.0007 1.03431 15.9548 0.861041 15.867 0.708264C15.7792 0.555486 15.6526 0.428622 15.5 0.340518C15.348 0.252749 15.1755 0.206543 15 0.206543C14.8245 0.206543 14.652 0.252749 14.5 0.340518L11.5 2.06052L8.50001 0.340518C8.34799 0.252749 8.17554 0.206543 8.00001 0.206543C7.82447 0.206543 7.65203 0.252749 7.50001 0.340518L4.50001 2.06052L1.50001 0.340518C1.34799 0.252749 1.17554 0.206543 1.00001 0.206543C0.824471 0.206543 0.652027 0.252749 0.500008 0.340518C0.347404 0.428622 0.220789 0.555486 0.132986 0.708264C0.0451828 0.861041 -0.000691685 1.03431 7.88288e-06 1.21052V17.2105C7.88288e-06 18.0062 0.316078 18.7692 0.878688 19.3318C1.4413 19.8944 2.20436 20.2105 3.00001 20.2105H17C17.7957 20.2105 18.5587 19.8944 19.1213 19.3318C19.6839 18.7692 20 18.0062 20 17.2105V11.2105C20 10.9453 19.8947 10.6909 19.7071 10.5034C19.5196 10.3159 19.2652 10.2105 19 10.2105ZM3.00001 18.2105C2.73479 18.2105 2.48044 18.1052 2.2929 17.9176C2.10536 17.7301 2.00001 17.4757 2.00001 17.2105V2.94052L4.00001 4.08052C4.15435 4.16113 4.32589 4.20323 4.50001 4.20323C4.67413 4.20323 4.84567 4.16113 5.00001 4.08052L8.00001 2.36052L11 4.08052C11.1543 4.16113 11.3259 4.20323 11.5 4.20323C11.6741 4.20323 11.8457 4.16113 12 4.08052L14 2.94052V17.2105C14.0027 17.5517 14.0636 17.8898 14.18 18.2105H3.00001ZM18 17.2105C18 17.4757 17.8947 17.7301 17.7071 17.9176C17.5196 18.1052 17.2652 18.2105 17 18.2105C16.7348 18.2105 16.4804 18.1052 16.2929 17.9176C16.1054 17.7301 16 17.4757 16 17.2105V12.2105H18V17.2105ZM11.56 14.3805C11.5043 14.3427 11.4437 14.3124 11.38 14.2905C11.3205 14.2601 11.2562 14.2398 11.19 14.2305C11.0294 14.1983 10.8633 14.2061 10.7063 14.2532C10.5494 14.3003 10.4064 14.3852 10.29 14.5005C10.1073 14.6922 10.0037 14.9458 10 15.2105C9.99841 15.3405 10.0222 15.4696 10.07 15.5905C10.1244 15.712 10.1987 15.8236 10.29 15.9205C10.3872 16.0088 10.4988 16.0799 10.62 16.1305C10.7397 16.1834 10.8691 16.2108 11 16.2108C11.1309 16.2108 11.2603 16.1834 11.38 16.1305C11.5012 16.0799 11.6128 16.0088 11.71 15.9205C11.8027 15.8271 11.876 15.7163 11.9258 15.5944C11.9755 15.4726 12.0008 15.3421 12 15.2105C11.9963 14.9458 11.8927 14.6922 11.71 14.5005C11.6625 14.4575 11.6124 14.4174 11.56 14.3805ZM11.7 10.5005C11.5832 10.3868 11.4404 10.3034 11.2841 10.2574C11.1277 10.2115 10.9624 10.2045 10.8027 10.2371C10.643 10.2696 10.4937 10.3407 10.3677 10.4441C10.2418 10.5475 10.143 10.6802 10.08 10.8305C10.0178 10.982 9.99369 11.1465 10.0099 11.3095C10.0261 11.4724 10.0821 11.629 10.1729 11.7652C10.2638 11.9015 10.3867 12.0134 10.5309 12.091C10.6751 12.1687 10.8362 12.2097 11 12.2105C11.2652 12.2105 11.5196 12.1052 11.7071 11.9176C11.8947 11.7301 12 11.4757 12 11.2105C11.9984 11.0798 11.9712 10.9507 11.92 10.8305C11.8718 10.7057 11.7967 10.593 11.7 10.5005Z" fill="#0063FF"/>
</svg>
