<svg width="16" height="16" viewBox="0 0 16 16" fill="none" xmlns="http://www.w3.org/2000/svg">
<path d="M8.47325 10.8602L8.37325 10.7802C8.33609 10.7549 8.29573 10.7348 8.25325 10.7202L8.13325 10.6668C8.02513 10.6442 7.91309 10.6488 7.8072 10.6803C7.70131 10.7117 7.60488 10.7689 7.52659 10.8468C7.4677 10.9116 7.42035 10.986 7.38659 11.0668C7.33613 11.1883 7.32274 11.322 7.34809 11.451C7.37344 11.5801 7.4364 11.6988 7.52905 11.7921C7.6217 11.8855 7.73989 11.9494 7.86876 11.9757C7.99762 12.0021 8.1314 11.9897 8.25325 11.9402C8.33292 11.9015 8.40693 11.8522 8.47325 11.7935C8.56576 11.6997 8.62842 11.5807 8.65334 11.4514C8.67825 11.322 8.66431 11.1882 8.61325 11.0668C8.58001 10.9897 8.53251 10.9196 8.47325 10.8602ZM10.6666 1.3335H5.33325C4.80282 1.3335 4.29411 1.54421 3.91904 1.91928C3.54397 2.29436 3.33325 2.80306 3.33325 3.3335V12.6668C3.33325 13.1973 3.54397 13.706 3.91904 14.081C4.29411 14.4561 4.80282 14.6668 5.33325 14.6668H10.6666C11.197 14.6668 11.7057 14.4561 12.0808 14.081C12.4559 13.706 12.6666 13.1973 12.6666 12.6668V3.3335C12.6666 2.80306 12.4559 2.29436 12.0808 1.91928C11.7057 1.54421 11.197 1.3335 10.6666 1.3335ZM11.3333 12.6668C11.3333 12.8436 11.263 13.0132 11.138 13.1382C11.013 13.2633 10.8434 13.3335 10.6666 13.3335H5.33325C5.15644 13.3335 4.98687 13.2633 4.86185 13.1382C4.73682 13.0132 4.66659 12.8436 4.66659 12.6668V3.3335C4.66659 3.15669 4.73682 2.98712 4.86185 2.86209C4.98687 2.73707 5.15644 2.66683 5.33325 2.66683H10.6666C10.8434 2.66683 11.013 2.73707 11.138 2.86209C11.263 2.98712 11.3333 3.15669 11.3333 3.3335V12.6668Z" fill="#1C1C1C" fill-opacity="0.6"/>
</svg>
