<svg width="24" height="24" viewBox="0 0 24 24" fill="none" xmlns="http://www.w3.org/2000/svg">
<path d="M0 12C0 5.37258 5.37258 0 12 0C18.6274 0 24 5.37258 24 12C24 18.6274 18.6274 24 12 24C5.37258 24 0 18.6274 0 12Z" fill="#FFEDEB"/>
<path d="M17.5109 7.86542H14.7554V7.17653C14.7554 6.62842 14.5376 6.10275 14.15 5.71518C13.7625 5.3276 13.2368 5.10986 12.6887 5.10986H11.3109C10.7628 5.10986 10.2371 5.3276 9.84956 5.71518C9.46199 6.10275 9.24425 6.62842 9.24425 7.17653V7.86542H6.48869C6.30599 7.86542 6.13077 7.938 6.00158 8.06719C5.87238 8.19638 5.7998 8.3716 5.7998 8.55431C5.7998 8.73701 5.87238 8.91223 6.00158 9.04143C6.13077 9.17062 6.30599 9.2432 6.48869 9.2432H7.17758V16.821C7.17758 17.3691 7.39532 17.8948 7.7829 18.2823C8.17047 18.6699 8.69613 18.8876 9.24425 18.8876H14.7554C15.3035 18.8876 15.8291 18.6699 16.2167 18.2823C16.6043 17.8948 16.822 17.3691 16.822 16.821V9.2432H17.5109C17.6936 9.2432 17.8688 9.17062 17.998 9.04143C18.1272 8.91223 18.1998 8.73701 18.1998 8.55431C18.1998 8.3716 18.1272 8.19638 17.998 8.06719C17.8688 7.938 17.6936 7.86542 17.5109 7.86542ZM10.622 7.17653C10.622 6.99383 10.6946 6.8186 10.8238 6.68941C10.953 6.56022 11.1282 6.48764 11.3109 6.48764H12.6887C12.8714 6.48764 13.0466 6.56022 13.1758 6.68941C13.305 6.8186 13.3776 6.99383 13.3776 7.17653V7.86542H10.622V7.17653ZM15.4442 16.821C15.4442 17.0037 15.3717 17.1789 15.2425 17.3081C15.1133 17.4373 14.9381 17.5099 14.7554 17.5099H9.24425C9.06154 17.5099 8.88632 17.4373 8.75713 17.3081C8.62794 17.1789 8.55536 17.0037 8.55536 16.821V9.2432H15.4442V16.821Z" fill="#D94535"/>
</svg>
