<svg width="16" height="16" viewBox="0 0 16 16" fill="none" xmlns="http://www.w3.org/2000/svg">
<path d="M7.99997 1.3335C6.97736 1.33345 5.96844 1.56866 5.05128 2.02092C4.13411 2.47318 3.33328 3.13037 2.71073 3.94165C2.08819 4.75293 1.66063 5.69655 1.46112 6.69951C1.26161 7.70247 1.2955 8.73788 1.56017 9.72565C1.82485 10.7134 2.31321 11.627 2.98748 12.3959C3.66174 13.1647 4.50384 13.7681 5.44862 14.1594C6.3934 14.5507 7.41553 14.7195 8.43595 14.6525C9.45637 14.5856 10.4477 14.2848 11.3333 13.7735C11.413 13.7318 11.4834 13.6745 11.5403 13.6049C11.5972 13.5353 11.6395 13.4549 11.6646 13.3685C11.6896 13.2822 11.6969 13.1916 11.6861 13.1024C11.6752 13.0131 11.6465 12.927 11.6015 12.8491C11.5565 12.7713 11.4962 12.7034 11.4243 12.6494C11.3523 12.5955 11.2702 12.5566 11.1829 12.5352C11.0956 12.5139 11.0048 12.5104 10.9161 12.5249C10.8274 12.5395 10.7425 12.5719 10.6666 12.6202C9.64992 13.2072 8.46793 13.4423 7.30398 13.2891C6.14002 13.1359 5.05913 12.6029 4.22894 11.7728C3.39875 10.9427 2.86566 9.86189 2.71232 8.69795C2.55899 7.534 2.79398 6.35199 3.38087 5.33521C3.96775 4.31843 4.87373 3.52371 5.9583 3.07429C7.04287 2.62487 8.24542 2.54586 9.37947 2.84952C10.5135 3.15319 11.5157 3.82255 12.2305 4.7538C12.9454 5.68506 13.333 6.82617 13.3333 8.00016V8.50016C13.3333 8.80958 13.2104 9.10633 12.9916 9.32512C12.7728 9.54391 12.4761 9.66683 12.1666 9.66683C11.8572 9.66683 11.5605 9.54391 11.3417 9.32512C11.1229 9.10633 11 8.80958 11 8.50016V5.66683C11 5.49002 10.9297 5.32045 10.8047 5.19543C10.6797 5.0704 10.5101 5.00016 10.3333 5.00016C10.1783 4.99671 10.0269 5.04742 9.9052 5.14354C9.78352 5.23967 9.69916 5.37521 9.66663 5.52683C9.17658 5.18788 8.59581 5.00436 7.99997 5.00016C7.49808 4.99416 7.0027 5.11418 6.55922 5.34923C6.11573 5.58427 5.7383 5.92684 5.46151 6.34554C5.18471 6.76425 5.01739 7.24571 4.97487 7.74583C4.93236 8.24595 5.016 8.74874 5.21815 9.20816C5.42029 9.66758 5.73447 10.0689 6.13192 10.3755C6.52937 10.682 6.99737 10.8839 7.49307 10.9627C7.98877 11.0415 8.49632 10.9947 8.96924 10.8266C9.44215 10.6584 9.86531 10.3742 10.2 10.0002C10.5167 10.4104 10.9534 10.7117 11.4494 10.8622C11.9453 11.0127 12.4759 11.0049 12.9672 10.8399C13.4585 10.6749 13.8862 10.3609 14.1907 9.94157C14.4953 9.52224 14.6617 9.01842 14.6666 8.50016V8.00016C14.6666 7.12468 14.4942 6.25778 14.1592 5.44894C13.8241 4.6401 13.3331 3.90517 12.714 3.28612C12.095 2.66706 11.36 2.176 10.5512 1.84097C9.74235 1.50593 8.87545 1.3335 7.99997 1.3335ZM7.99997 9.66683C7.67033 9.66683 7.3481 9.56908 7.07402 9.38595C6.79993 9.20281 6.58631 8.94251 6.46017 8.63797C6.33402 8.33343 6.30102 7.99831 6.36533 7.67501C6.42963 7.35171 6.58837 7.05474 6.82146 6.82165C7.05454 6.58856 7.35151 6.42983 7.67482 6.36552C7.99812 6.30121 8.33323 6.33422 8.63777 6.46036C8.94232 6.58651 9.20261 6.80013 9.38575 7.07421C9.56889 7.34829 9.66663 7.67053 9.66663 8.00016C9.66663 8.44219 9.49104 8.86611 9.17848 9.17867C8.86592 9.49123 8.44199 9.66683 7.99997 9.66683Z" fill="#1C1C1C" fill-opacity="0.6"/>
</svg>
