<svg width="24" height="25" viewBox="0 0 24 25" fill="none" xmlns="http://www.w3.org/2000/svg">
<path d="M9.00001 12.211H7.00001C6.73479 12.211 6.48044 12.3164 6.2929 12.5039C6.10537 12.6914 6.00001 12.9458 6.00001 13.211C6.00001 13.4762 6.10537 13.7306 6.2929 13.9181C6.48044 14.1056 6.73479 14.211 7.00001 14.211H9.00001C9.26522 14.211 9.51958 14.1056 9.70711 13.9181C9.89465 13.7306 10 13.4762 10 13.211C10 12.9458 9.89465 12.6914 9.70711 12.5039C9.51958 12.3164 9.26522 12.211 9.00001 12.211ZM8.00001 10.211H12C12.2652 10.211 12.5196 10.1056 12.7071 9.91811C12.8947 9.73058 13 9.47622 13 9.21101C13 8.94579 12.8947 8.69144 12.7071 8.5039C12.5196 8.31636 12.2652 8.21101 12 8.21101H8.00001C7.73479 8.21101 7.48044 8.31636 7.2929 8.5039C7.10537 8.69144 7.00001 8.94579 7.00001 9.21101C7.00001 9.47622 7.10537 9.73058 7.2929 9.91811C7.48044 10.1056 7.73479 10.211 8.00001 10.211ZM9.00001 16.211H7.00001C6.73479 16.211 6.48044 16.3164 6.2929 16.5039C6.10537 16.6914 6.00001 16.9458 6.00001 17.211C6.00001 17.4762 6.10537 17.7306 6.2929 17.9181C6.48044 18.1056 6.73479 18.211 7.00001 18.211H9.00001C9.26522 18.211 9.51958 18.1056 9.70711 17.9181C9.89465 17.7306 10 17.4762 10 17.211C10 16.9458 9.89465 16.6914 9.70711 16.5039C9.51958 16.3164 9.26522 16.211 9.00001 16.211ZM21 12.211H18V3.21101C18.0007 3.0348 17.9548 2.86153 17.867 2.70875C17.7792 2.55597 17.6526 2.42911 17.5 2.34101C17.348 2.25324 17.1755 2.20703 17 2.20703C16.8245 2.20703 16.652 2.25324 16.5 2.34101L13.5 4.06101L10.5 2.34101C10.348 2.25324 10.1755 2.20703 10 2.20703C9.82447 2.20703 9.65203 2.25324 9.50001 2.34101L6.50001 4.06101L3.50001 2.34101C3.34799 2.25324 3.17554 2.20703 3.00001 2.20703C2.82447 2.20703 2.65203 2.25324 2.50001 2.34101C2.3474 2.42911 2.22079 2.55597 2.13299 2.70875C2.04518 2.86153 1.99931 3.0348 2.00001 3.21101V19.211C2.00001 20.0067 2.31608 20.7697 2.87869 21.3323C3.4413 21.8949 4.20436 22.211 5.00001 22.211H19C19.7957 22.211 20.5587 21.8949 21.1213 21.3323C21.6839 20.7697 22 20.0067 22 19.211V13.211C22 12.9458 21.8947 12.6914 21.7071 12.5039C21.5196 12.3164 21.2652 12.211 21 12.211ZM5.00001 20.211C4.73479 20.211 4.48044 20.1056 4.2929 19.9181C4.10536 19.7306 4.00001 19.4762 4.00001 19.211V4.94101L6.00001 6.08101C6.15435 6.16162 6.32589 6.20372 6.50001 6.20372C6.67413 6.20372 6.84567 6.16162 7.00001 6.08101L10 4.36101L13 6.08101C13.1543 6.16162 13.3259 6.20372 13.5 6.20372C13.6741 6.20372 13.8457 6.16162 14 6.08101L16 4.94101V19.211C16.0027 19.5521 16.0636 19.8903 16.18 20.211H5.00001ZM20 19.211C20 19.4762 19.8947 19.7306 19.7071 19.9181C19.5196 20.1056 19.2652 20.211 19 20.211C18.7348 20.211 18.4804 20.1056 18.2929 19.9181C18.1054 19.7306 18 19.4762 18 19.211V14.211H20V19.211ZM13.56 16.381C13.5043 16.3432 13.4437 16.3129 13.38 16.291C13.3205 16.2606 13.2562 16.2403 13.19 16.231C13.0294 16.1988 12.8633 16.2066 12.7063 16.2537C12.5494 16.3008 12.4064 16.3857 12.29 16.501C12.1073 16.6926 12.0037 16.9462 12 17.211C11.9984 17.341 12.0222 17.4701 12.07 17.591C12.1244 17.7125 12.1987 17.8241 12.29 17.921C12.3872 18.0093 12.4988 18.0804 12.62 18.131C12.7397 18.1839 12.8691 18.2112 13 18.2112C13.1309 18.2112 13.2603 18.1839 13.38 18.131C13.5012 18.0804 13.6128 18.0093 13.71 17.921C13.8027 17.8276 13.876 17.7168 13.9258 17.5949C13.9755 17.4731 14.0008 17.3426 14 17.211C13.9963 16.9462 13.8927 16.6926 13.71 16.501C13.6625 16.458 13.6124 16.4179 13.56 16.381ZM13.7 12.501C13.5832 12.3873 13.4404 12.3038 13.2841 12.2579C13.1277 12.212 12.9624 12.205 12.8027 12.2375C12.643 12.2701 12.4937 12.3412 12.3677 12.4446C12.2418 12.548 12.143 12.6807 12.08 12.831C12.0178 12.9825 11.9937 13.147 12.0099 13.31C12.0261 13.4729 12.0821 13.6294 12.1729 13.7657C12.2638 13.902 12.3867 14.0139 12.5309 14.0915C12.6751 14.1692 12.8362 14.2102 13 14.211C13.2652 14.211 13.5196 14.1056 13.7071 13.9181C13.8947 13.7306 14 13.4762 14 13.211C13.9984 13.0803 13.9712 12.9512 13.92 12.831C13.8718 12.7062 13.7967 12.5935 13.7 12.501Z" fill="#605BFF"/>
</svg>
