<svg width="16" height="16" viewBox="0 0 16 16" fill="none" xmlns="http://www.w3.org/2000/svg">
<path d="M12.0001 2.98644C10.9392 1.92558 9.50041 1.32959 8.00012 1.32959C6.49982 1.32959 5.06098 1.92558 4.00012 2.98644C2.93925 4.04731 2.34326 5.48615 2.34326 6.98644C2.34326 8.48674 2.93925 9.92558 4.00012 10.9864L7.51345 14.5064C7.57542 14.5689 7.64916 14.6185 7.7304 14.6524C7.81164 14.6862 7.89877 14.7036 7.98678 14.7036C8.07479 14.7036 8.16193 14.6862 8.24317 14.6524C8.32441 14.6185 8.39814 14.5689 8.46011 14.5064L12.0001 10.9531C13.0565 9.89666 13.65 8.46381 13.65 6.96978C13.65 5.47574 13.0565 4.0429 12.0001 2.98644ZM11.0468 9.99978L8.00012 13.0598L4.95345 9.99978C4.35155 9.39732 3.94177 8.62994 3.77591 7.79464C3.61006 6.95933 3.69557 6.09361 4.02165 5.3069C4.34773 4.52019 4.89973 3.84781 5.60787 3.37476C6.31601 2.90171 7.14851 2.64923 8.00012 2.64923C8.85173 2.64923 9.68422 2.90171 10.3924 3.37476C11.1005 3.84781 11.6525 4.52019 11.9786 5.3069C12.3047 6.09361 12.3902 6.95933 12.2243 7.79464C12.0585 8.62994 11.6487 9.39732 11.0468 9.99978ZM6.00012 4.93978C5.46193 5.47963 5.15971 6.21082 5.15971 6.97311C5.15971 7.7354 5.46193 8.4666 6.00012 9.00644C6.39996 9.40697 6.90917 9.6805 7.46388 9.79271C8.01859 9.90493 8.59408 9.85083 9.11816 9.63721C9.64224 9.42359 10.0916 9.05996 10.4098 8.59194C10.728 8.12392 10.9009 7.57236 10.9068 7.00644C10.9098 6.62858 10.837 6.25395 10.6927 5.9047C10.5484 5.55546 10.3356 5.23868 10.0668 4.97311C9.80256 4.70283 9.4875 4.48747 9.13973 4.33942C8.79196 4.19137 8.41834 4.11356 8.04038 4.11046C7.66242 4.10737 7.28758 4.17904 6.93743 4.32137C6.58728 4.4637 6.26873 4.67386 6.00012 4.93978ZM9.12678 8.05978C8.87414 8.31627 8.54026 8.47705 8.1822 8.51461C7.82414 8.55218 7.46416 8.4642 7.16379 8.26573C6.86342 8.06725 6.64131 7.77061 6.53545 7.4265C6.42959 7.08239 6.44655 6.7122 6.58342 6.37921C6.72029 6.04623 6.96858 5.77112 7.28584 5.60093C7.6031 5.43075 7.96962 5.37605 8.32274 5.44619C8.67586 5.51633 8.99366 5.70695 9.22179 5.98547C9.44992 6.26398 9.57423 6.61309 9.57345 6.97311C9.56375 7.38462 9.39111 7.77546 9.09345 8.05978H9.12678Z" fill="#1C1C1C" fill-opacity="0.6"/>
</svg>
