<svg width="24" height="25" viewBox="0 0 24 25" fill="none" xmlns="http://www.w3.org/2000/svg">
<path d="M9.00001 12.2106H7.00001C6.73479 12.2106 6.48044 12.316 6.2929 12.5035C6.10537 12.691 6.00001 12.9454 6.00001 13.2106C6.00001 13.4758 6.10537 13.7302 6.2929 13.9177C6.48044 14.1052 6.73479 14.2106 7.00001 14.2106H9.00001C9.26522 14.2106 9.51958 14.1052 9.70711 13.9177C9.89465 13.7302 10 13.4758 10 13.2106C10 12.9454 9.89465 12.691 9.70711 12.5035C9.51958 12.316 9.26522 12.2106 9.00001 12.2106ZM8.00001 10.2106H12C12.2652 10.2106 12.5196 10.1052 12.7071 9.9177C12.8947 9.73016 13 9.47581 13 9.21059C13 8.94538 12.8947 8.69102 12.7071 8.50349C12.5196 8.31595 12.2652 8.21059 12 8.21059H8.00001C7.73479 8.21059 7.48044 8.31595 7.2929 8.50349C7.10537 8.69102 7.00001 8.94538 7.00001 9.21059C7.00001 9.47581 7.10537 9.73016 7.2929 9.9177C7.48044 10.1052 7.73479 10.2106 8.00001 10.2106ZM9.00001 16.2106H7.00001C6.73479 16.2106 6.48044 16.316 6.2929 16.5035C6.10537 16.691 6.00001 16.9454 6.00001 17.2106C6.00001 17.4758 6.10537 17.7302 6.2929 17.9177C6.48044 18.1052 6.73479 18.2106 7.00001 18.2106H9.00001C9.26522 18.2106 9.51958 18.1052 9.70711 17.9177C9.89465 17.7302 10 17.4758 10 17.2106C10 16.9454 9.89465 16.691 9.70711 16.5035C9.51958 16.316 9.26522 16.2106 9.00001 16.2106ZM21 12.2106H18V3.21059C18.0007 3.03438 17.9548 2.86112 17.867 2.70834C17.7792 2.55556 17.6526 2.4287 17.5 2.34059C17.348 2.25283 17.1755 2.20662 17 2.20662C16.8245 2.20662 16.652 2.25283 16.5 2.34059L13.5 4.06059L10.5 2.34059C10.348 2.25283 10.1755 2.20662 10 2.20662C9.82447 2.20662 9.65203 2.25283 9.50001 2.34059L6.50001 4.06059L3.50001 2.34059C3.34799 2.25283 3.17554 2.20662 3.00001 2.20662C2.82447 2.20662 2.65203 2.25283 2.50001 2.34059C2.3474 2.4287 2.22079 2.55556 2.13299 2.70834C2.04518 2.86112 1.99931 3.03438 2.00001 3.21059V19.2106C2.00001 20.0062 2.31608 20.7693 2.87869 21.3319C3.4413 21.8945 4.20436 22.2106 5.00001 22.2106H19C19.7957 22.2106 20.5587 21.8945 21.1213 21.3319C21.6839 20.7693 22 20.0062 22 19.2106V13.2106C22 12.9454 21.8947 12.691 21.7071 12.5035C21.5196 12.316 21.2652 12.2106 21 12.2106ZM5.00001 20.2106C4.73479 20.2106 4.48044 20.1052 4.2929 19.9177C4.10536 19.7302 4.00001 19.4758 4.00001 19.2106V4.94059L6.00001 6.08059C6.15435 6.16121 6.32589 6.20331 6.50001 6.20331C6.67413 6.20331 6.84567 6.16121 7.00001 6.08059L10 4.36059L13 6.08059C13.1543 6.16121 13.3259 6.20331 13.5 6.20331C13.6741 6.20331 13.8457 6.16121 14 6.08059L16 4.94059V19.2106C16.0027 19.5517 16.0636 19.8899 16.18 20.2106H5.00001ZM20 19.2106C20 19.4758 19.8947 19.7302 19.7071 19.9177C19.5196 20.1052 19.2652 20.2106 19 20.2106C18.7348 20.2106 18.4804 20.1052 18.2929 19.9177C18.1054 19.7302 18 19.4758 18 19.2106V14.2106H20V19.2106ZM13.56 16.3806C13.5043 16.3427 13.4437 16.3125 13.38 16.2906C13.3205 16.2601 13.2562 16.2399 13.19 16.2306C13.0294 16.1984 12.8633 16.2062 12.7063 16.2533C12.5494 16.3004 12.4064 16.3853 12.29 16.5006C12.1073 16.6922 12.0037 16.9458 12 17.2106C11.9984 17.3406 12.0222 17.4697 12.07 17.5906C12.1244 17.7121 12.1987 17.8237 12.29 17.9206C12.3872 18.0089 12.4988 18.08 12.62 18.1306C12.7397 18.1835 12.8691 18.2108 13 18.2108C13.1309 18.2108 13.2603 18.1835 13.38 18.1306C13.5012 18.08 13.6128 18.0089 13.71 17.9206C13.8027 17.8272 13.876 17.7163 13.9258 17.5945C13.9755 17.4727 14.0008 17.3422 14 17.2106C13.9963 16.9458 13.8927 16.6922 13.71 16.5006C13.6625 16.4576 13.6124 16.4175 13.56 16.3806ZM13.7 12.5006C13.5832 12.3869 13.4404 12.3034 13.2841 12.2575C13.1277 12.2116 12.9624 12.2046 12.8027 12.2371C12.643 12.2697 12.4937 12.3407 12.3677 12.4442C12.2418 12.5476 12.143 12.6803 12.08 12.8306C12.0178 12.9821 11.9937 13.1466 12.0099 13.3095C12.0261 13.4725 12.0821 13.629 12.1729 13.7653C12.2638 13.9016 12.3867 14.0135 12.5309 14.0911C12.6751 14.1687 12.8362 14.2098 13 14.2106C13.2652 14.2106 13.5196 14.1052 13.7071 13.9177C13.8947 13.7302 14 13.4758 14 13.2106C13.9984 13.0799 13.9712 12.9508 13.92 12.8306C13.8718 12.7058 13.7967 12.5931 13.7 12.5006Z" fill="#FFE6E6"/>
</svg>
