<svg width="20" height="21" viewBox="0 0 20 21" fill="none" xmlns="http://www.w3.org/2000/svg">
<path d="M7.00001 10.211H5.00001C4.73479 10.211 4.48044 10.3164 4.2929 10.5039C4.10537 10.6914 4.00001 10.9458 4.00001 11.211C4.00001 11.4762 4.10537 11.7306 4.2929 11.9181C4.48044 12.1056 4.73479 12.211 5.00001 12.211H7.00001C7.26522 12.211 7.51958 12.1056 7.70711 11.9181C7.89465 11.7306 8.00001 11.4762 8.00001 11.211C8.00001 10.9458 7.89465 10.6914 7.70711 10.5039C7.51958 10.3164 7.26522 10.211 7.00001 10.211ZM6.00001 8.21101H10C10.2652 8.21101 10.5196 8.10565 10.7071 7.91811C10.8947 7.73058 11 7.47622 11 7.21101C11 6.94579 10.8947 6.69144 10.7071 6.5039C10.5196 6.31636 10.2652 6.21101 10 6.21101H6.00001C5.73479 6.21101 5.48044 6.31636 5.2929 6.5039C5.10537 6.69144 5.00001 6.94579 5.00001 7.21101C5.00001 7.47622 5.10537 7.73058 5.2929 7.91811C5.48044 8.10565 5.73479 8.21101 6.00001 8.21101ZM7.00001 14.211H5.00001C4.73479 14.211 4.48044 14.3164 4.2929 14.5039C4.10537 14.6914 4.00001 14.9458 4.00001 15.211C4.00001 15.4762 4.10537 15.7306 4.2929 15.9181C4.48044 16.1056 4.73479 16.211 5.00001 16.211H7.00001C7.26522 16.211 7.51958 16.1056 7.70711 15.9181C7.89465 15.7306 8.00001 15.4762 8.00001 15.211C8.00001 14.9458 7.89465 14.6914 7.70711 14.5039C7.51958 14.3164 7.26522 14.211 7.00001 14.211ZM19 10.211H16V1.21101C16.0007 1.0348 15.9548 0.86153 15.867 0.708752C15.7792 0.555974 15.6526 0.42911 15.5 0.341006C15.348 0.253238 15.1755 0.207031 15 0.207031C14.8245 0.207031 14.652 0.253238 14.5 0.341006L11.5 2.06101L8.50001 0.341006C8.34799 0.253238 8.17554 0.207031 8.00001 0.207031C7.82447 0.207031 7.65203 0.253238 7.50001 0.341006L4.50001 2.06101L1.50001 0.341006C1.34799 0.253238 1.17554 0.207031 1.00001 0.207031C0.824471 0.207031 0.652027 0.253238 0.500008 0.341006C0.347404 0.42911 0.220789 0.555974 0.132986 0.708752C0.0451828 0.86153 -0.000691685 1.0348 7.88288e-06 1.21101V17.211C7.88288e-06 18.0067 0.316078 18.7697 0.878688 19.3323C1.4413 19.8949 2.20436 20.211 3.00001 20.211H17C17.7957 20.211 18.5587 19.8949 19.1213 19.3323C19.6839 18.7697 20 18.0067 20 17.211V11.211C20 10.9458 19.8947 10.6914 19.7071 10.5039C19.5196 10.3164 19.2652 10.211 19 10.211ZM3.00001 18.211C2.73479 18.211 2.48044 18.1056 2.2929 17.9181C2.10536 17.7306 2.00001 17.4762 2.00001 17.211V2.94101L4.00001 4.08101C4.15435 4.16162 4.32589 4.20372 4.50001 4.20372C4.67413 4.20372 4.84567 4.16162 5.00001 4.08101L8.00001 2.36101L11 4.08101C11.1543 4.16162 11.3259 4.20372 11.5 4.20372C11.6741 4.20372 11.8457 4.16162 12 4.08101L14 2.94101V17.211C14.0027 17.5521 14.0636 17.8903 14.18 18.211H3.00001ZM18 17.211C18 17.4762 17.8947 17.7306 17.7071 17.9181C17.5196 18.1056 17.2652 18.211 17 18.211C16.7348 18.211 16.4804 18.1056 16.2929 17.9181C16.1054 17.7306 16 17.4762 16 17.211V12.211H18V17.211ZM11.56 14.381C11.5043 14.3432 11.4437 14.3129 11.38 14.291C11.3205 14.2606 11.2562 14.2403 11.19 14.231C11.0294 14.1988 10.8633 14.2066 10.7063 14.2537C10.5494 14.3008 10.4064 14.3857 10.29 14.501C10.1073 14.6926 10.0037 14.9462 10 15.211C9.99841 15.341 10.0222 15.4701 10.07 15.591C10.1244 15.7125 10.1987 15.8241 10.29 15.921C10.3872 16.0093 10.4988 16.0804 10.62 16.131C10.7397 16.1839 10.8691 16.2112 11 16.2112C11.1309 16.2112 11.2603 16.1839 11.38 16.131C11.5012 16.0804 11.6128 16.0093 11.71 15.921C11.8027 15.8276 11.876 15.7168 11.9258 15.5949C11.9755 15.4731 12.0008 15.3426 12 15.211C11.9963 14.9462 11.8927 14.6926 11.71 14.501C11.6625 14.458 11.6124 14.4179 11.56 14.381ZM11.7 10.501C11.5832 10.3873 11.4404 10.3038 11.2841 10.2579C11.1277 10.212 10.9624 10.205 10.8027 10.2375C10.643 10.2701 10.4937 10.3412 10.3677 10.4446C10.2418 10.548 10.143 10.6807 10.08 10.831C10.0178 10.9825 9.99369 11.147 10.0099 11.31C10.0261 11.4729 10.0821 11.6294 10.1729 11.7657C10.2638 11.902 10.3867 12.0139 10.5309 12.0915C10.6751 12.1692 10.8362 12.2102 11 12.211C11.2652 12.211 11.5196 12.1056 11.7071 11.9181C11.8947 11.7306 12 11.4762 12 11.211C11.9984 11.0803 11.9712 10.9512 11.92 10.831C11.8718 10.7062 11.7967 10.5935 11.7 10.501Z" fill="#8BC149"/>
</svg>
