<svg width="16" height="16" viewBox="0 0 16 16" fill="none" xmlns="http://www.w3.org/2000/svg">
<path d="M4.66659 10.0002H6.66659C6.8434 10.0002 7.01297 9.92992 7.13799 9.8049C7.26301 9.67988 7.33325 9.51031 7.33325 9.3335C7.33325 9.15669 7.26301 8.98712 7.13799 8.86209C7.01297 8.73707 6.8434 8.66683 6.66659 8.66683H4.66659C4.48977 8.66683 4.32021 8.73707 4.19518 8.86209C4.07016 8.98712 3.99992 9.15669 3.99992 9.3335C3.99992 9.51031 4.07016 9.67988 4.19518 9.8049C4.32021 9.92992 4.48977 10.0002 4.66659 10.0002ZM12.6666 3.3335H3.33325C2.80282 3.3335 2.29411 3.54421 1.91904 3.91928C1.54397 4.29436 1.33325 4.80306 1.33325 5.3335V11.3335C1.33325 11.8639 1.54397 12.3726 1.91904 12.7477C2.29411 13.1228 2.80282 13.3335 3.33325 13.3335H12.6666C13.197 13.3335 13.7057 13.1228 14.0808 12.7477C14.4559 12.3726 14.6666 11.8639 14.6666 11.3335V5.3335C14.6666 4.80306 14.4559 4.29436 14.0808 3.91928C13.7057 3.54421 13.197 3.3335 12.6666 3.3335ZM13.3333 11.3335C13.3333 11.5103 13.263 11.6799 13.138 11.8049C13.013 11.9299 12.8434 12.0002 12.6666 12.0002H3.33325C3.15644 12.0002 2.98687 11.9299 2.86185 11.8049C2.73682 11.6799 2.66659 11.5103 2.66659 11.3335V7.3335H13.3333V11.3335ZM13.3333 6.00016H2.66659V5.3335C2.66659 5.15669 2.73682 4.98712 2.86185 4.86209C2.98687 4.73707 3.15644 4.66683 3.33325 4.66683H12.6666C12.8434 4.66683 13.013 4.73707 13.138 4.86209C13.263 4.98712 13.3333 5.15669 13.3333 5.3335V6.00016Z" fill="#1C1C1C" fill-opacity="0.6"/>
</svg>
