<svg width="21" height="21" viewBox="0 0 21 21" fill="none" xmlns="http://www.w3.org/2000/svg">
<path d="M7.50001 10.2105H5.50001C5.23479 10.2105 4.98044 10.3159 4.7929 10.5034C4.60537 10.6909 4.50001 10.9453 4.50001 11.2105C4.50001 11.4757 4.60537 11.7301 4.7929 11.9176C4.98044 12.1052 5.23479 12.2105 5.50001 12.2105H7.50001C7.76522 12.2105 8.01958 12.1052 8.20711 11.9176C8.39465 11.7301 8.50001 11.4757 8.50001 11.2105C8.50001 10.9453 8.39465 10.6909 8.20711 10.5034C8.01958 10.3159 7.76522 10.2105 7.50001 10.2105ZM6.50001 8.21052H10.5C10.7652 8.21052 11.0196 8.10516 11.2071 7.91762C11.3947 7.73009 11.5 7.47573 11.5 7.21052C11.5 6.9453 11.3947 6.69095 11.2071 6.50341C11.0196 6.31587 10.7652 6.21052 10.5 6.21052H6.50001C6.23479 6.21052 5.98044 6.31587 5.7929 6.50341C5.60537 6.69095 5.50001 6.9453 5.50001 7.21052C5.50001 7.47573 5.60537 7.73009 5.7929 7.91762C5.98044 8.10516 6.23479 8.21052 6.50001 8.21052ZM7.50001 14.2105H5.50001C5.23479 14.2105 4.98044 14.3159 4.7929 14.5034C4.60537 14.6909 4.50001 14.9453 4.50001 15.2105C4.50001 15.4757 4.60537 15.7301 4.7929 15.9176C4.98044 16.1052 5.23479 16.2105 5.50001 16.2105H7.50001C7.76522 16.2105 8.01958 16.1052 8.20711 15.9176C8.39465 15.7301 8.50001 15.4757 8.50001 15.2105C8.50001 14.9453 8.39465 14.6909 8.20711 14.5034C8.01958 14.3159 7.76522 14.2105 7.50001 14.2105ZM19.5 10.2105H16.5V1.21052C16.5007 1.03431 16.4548 0.861041 16.367 0.708264C16.2792 0.555486 16.1526 0.428622 16 0.340518C15.848 0.252749 15.6755 0.206543 15.5 0.206543C15.3245 0.206543 15.152 0.252749 15 0.340518L12 2.06052L9.00001 0.340518C8.84799 0.252749 8.67554 0.206543 8.50001 0.206543C8.32447 0.206543 8.15203 0.252749 8.00001 0.340518L5.00001 2.06052L2.00001 0.340518C1.84799 0.252749 1.67554 0.206543 1.50001 0.206543C1.32447 0.206543 1.15203 0.252749 1.00001 0.340518C0.847404 0.428622 0.720789 0.555486 0.632986 0.708264C0.545183 0.861041 0.499308 1.03431 0.500008 1.21052V17.2105C0.500008 18.0062 0.816078 18.7692 1.37869 19.3318C1.9413 19.8944 2.70436 20.2105 3.50001 20.2105H17.5C18.2957 20.2105 19.0587 19.8944 19.6213 19.3318C20.1839 18.7692 20.5 18.0062 20.5 17.2105V11.2105C20.5 10.9453 20.3947 10.6909 20.2071 10.5034C20.0196 10.3159 19.7652 10.2105 19.5 10.2105ZM3.50001 18.2105C3.23479 18.2105 2.98044 18.1052 2.7929 17.9176C2.60536 17.7301 2.50001 17.4757 2.50001 17.2105V2.94052L4.50001 4.08052C4.65435 4.16113 4.82589 4.20323 5.00001 4.20323C5.17413 4.20323 5.34567 4.16113 5.50001 4.08052L8.50001 2.36052L11.5 4.08052C11.6543 4.16113 11.8259 4.20323 12 4.20323C12.1741 4.20323 12.3457 4.16113 12.5 4.08052L14.5 2.94052V17.2105C14.5027 17.5517 14.5636 17.8898 14.68 18.2105H3.50001ZM18.5 17.2105C18.5 17.4757 18.3947 17.7301 18.2071 17.9176C18.0196 18.1052 17.7652 18.2105 17.5 18.2105C17.2348 18.2105 16.9804 18.1052 16.7929 17.9176C16.6054 17.7301 16.5 17.4757 16.5 17.2105V12.2105H18.5V17.2105ZM12.06 14.3805C12.0043 14.3427 11.9437 14.3124 11.88 14.2905C11.8205 14.2601 11.7562 14.2398 11.69 14.2305C11.5294 14.1983 11.3633 14.2061 11.2063 14.2532C11.0494 14.3003 10.9064 14.3852 10.79 14.5005C10.6073 14.6922 10.5037 14.9458 10.5 15.2105C10.4984 15.3405 10.5222 15.4696 10.57 15.5905C10.6244 15.712 10.6987 15.8236 10.79 15.9205C10.8872 16.0088 10.9988 16.0799 11.12 16.1305C11.2397 16.1834 11.3691 16.2108 11.5 16.2108C11.6309 16.2108 11.7603 16.1834 11.88 16.1305C12.0012 16.0799 12.1128 16.0088 12.21 15.9205C12.3027 15.8271 12.376 15.7163 12.4258 15.5944C12.4755 15.4726 12.5008 15.3421 12.5 15.2105C12.4963 14.9458 12.3927 14.6922 12.21 14.5005C12.1625 14.4575 12.1124 14.4174 12.06 14.3805ZM12.2 10.5005C12.0832 10.3868 11.9404 10.3034 11.7841 10.2574C11.6277 10.2115 11.4624 10.2045 11.3027 10.2371C11.143 10.2696 10.9937 10.3407 10.8677 10.4441C10.7418 10.5475 10.643 10.6802 10.58 10.8305C10.5178 10.982 10.4937 11.1465 10.5099 11.3095C10.5261 11.4724 10.5821 11.629 10.6729 11.7652C10.7638 11.9015 10.8867 12.0134 11.0309 12.091C11.1751 12.1687 11.3362 12.2097 11.5 12.2105C11.7652 12.2105 12.0196 12.1052 12.2071 11.9176C12.3947 11.7301 12.5 11.4757 12.5 11.2105C12.4984 11.0798 12.4712 10.9507 12.42 10.8305C12.3718 10.7057 12.2967 10.593 12.2 10.5005Z" fill="#FFC327"/>
</svg>
