<svg width="24" height="25" viewBox="0 0 24 25" fill="none" xmlns="http://www.w3.org/2000/svg">
<path d="M10.46 6.21041L11 5.62041V9.21041C11 9.47562 11.1054 9.72998 11.2929 9.91751C11.4804 10.105 11.7348 10.2104 12 10.2104C12.2652 10.2104 12.5196 10.105 12.7071 9.91751C12.8946 9.72998 13 9.47562 13 9.21041V5.62041L13.54 6.17041C13.6308 6.27293 13.7416 6.35572 13.8657 6.41364C13.9898 6.47156 14.1244 6.50338 14.2613 6.50713C14.3982 6.51088 14.5344 6.48648 14.6615 6.43544C14.7885 6.3844 14.9038 6.30781 15 6.21041C15.0937 6.11744 15.1681 6.00684 15.2189 5.88498C15.2697 5.76312 15.2958 5.63242 15.2958 5.50041C15.2958 5.36839 15.2697 5.23769 15.2189 5.11583C15.1681 4.99397 15.0937 4.88337 15 4.79041L12.71 2.50041C12.6149 2.40937 12.5028 2.338 12.38 2.29041C12.1365 2.19039 11.8635 2.19039 11.62 2.29041C11.4972 2.338 11.3851 2.40937 11.29 2.50041L9 4.75041C8.80639 4.94401 8.69762 5.2066 8.69762 5.48041C8.69762 5.75421 8.80639 6.0168 9 6.21041C9.19361 6.40401 9.4562 6.51278 9.73 6.51278C10.0038 6.51278 10.2664 6.40401 10.46 6.21041ZM12 12.2104C11.4067 12.2104 10.8266 12.3864 10.3333 12.716C9.83994 13.0456 9.45542 13.5142 9.22836 14.0624C9.0013 14.6105 8.94189 15.2137 9.05764 15.7957C9.1734 16.3776 9.45912 16.9122 9.87868 17.3317C10.2982 17.7513 10.8328 18.037 11.4147 18.1528C11.9967 18.2685 12.5999 18.2091 13.1481 17.982C13.6962 17.755 14.1648 17.3705 14.4944 16.8771C14.8241 16.3838 15 15.8038 15 15.2104C15 14.4148 14.6839 13.6517 14.1213 13.0891C13.5587 12.5265 12.7956 12.2104 12 12.2104ZM12 16.2104C11.8022 16.2104 11.6089 16.1518 11.4444 16.0419C11.28 15.932 11.1518 15.7758 11.0761 15.5931C11.0004 15.4104 10.9806 15.2093 11.0192 15.0153C11.0578 14.8213 11.153 14.6432 11.2929 14.5033C11.4327 14.3634 11.6109 14.2682 11.8049 14.2296C11.9989 14.191 12.2 14.2108 12.3827 14.2865C12.5654 14.3622 12.7216 14.4904 12.8315 14.6548C12.9414 14.8193 13 15.0126 13 15.2104C13 15.4756 12.8946 15.73 12.7071 15.9175C12.5196 16.105 12.2652 16.2104 12 16.2104ZM5 15.2104C5 15.4082 5.05865 15.6015 5.16853 15.766C5.27841 15.9304 5.43459 16.0586 5.61732 16.1343C5.80004 16.21 6.00111 16.2298 6.19509 16.1912C6.38907 16.1526 6.56725 16.0574 6.70711 15.9175C6.84696 15.7777 6.9422 15.5995 6.98079 15.4055C7.01937 15.2115 6.99957 15.0104 6.92388 14.8277C6.84819 14.645 6.72002 14.4888 6.55557 14.3789C6.39112 14.2691 6.19778 14.2104 6 14.2104C5.73478 14.2104 5.48043 14.3158 5.29289 14.5033C5.10536 14.6908 5 14.9452 5 15.2104ZM19 15.2104C19 15.0126 18.9414 14.8193 18.8315 14.6548C18.7216 14.4904 18.5654 14.3622 18.3827 14.2865C18.2 14.2108 17.9989 14.191 17.8049 14.2296C17.6109 14.2682 17.4327 14.3634 17.2929 14.5033C17.153 14.6432 17.0578 14.8213 17.0192 15.0153C16.9806 15.2093 17.0004 15.4104 17.0761 15.5931C17.1518 15.7758 17.28 15.932 17.4444 16.0419C17.6089 16.1518 17.8022 16.2104 18 16.2104C18.2652 16.2104 18.5196 16.105 18.7071 15.9175C18.8946 15.73 19 15.4756 19 15.2104ZM20 8.21041H16C15.7348 8.21041 15.4804 8.31576 15.2929 8.5033C15.1054 8.69084 15 8.94519 15 9.21041C15 9.47562 15.1054 9.72998 15.2929 9.91751C15.4804 10.105 15.7348 10.2104 16 10.2104H20C20.2652 10.2104 20.5196 10.3158 20.7071 10.5033C20.8946 10.6908 21 10.9452 21 11.2104V19.2104C21 19.4756 20.8946 19.73 20.7071 19.9175C20.5196 20.1051 20.2652 20.2104 20 20.2104H4C3.73478 20.2104 3.48043 20.1051 3.29289 19.9175C3.10536 19.73 3 19.4756 3 19.2104V11.2104C3 10.9452 3.10536 10.6908 3.29289 10.5033C3.48043 10.3158 3.73478 10.2104 4 10.2104H8C8.26522 10.2104 8.51957 10.105 8.70711 9.91751C8.89464 9.72998 9 9.47562 9 9.21041C9 8.94519 8.89464 8.69084 8.70711 8.5033C8.51957 8.31576 8.26522 8.21041 8 8.21041H4C3.20435 8.21041 2.44129 8.52648 1.87868 9.08909C1.31607 9.6517 1 10.4148 1 11.2104V19.2104C1 20.0061 1.31607 20.7691 1.87868 21.3317C2.44129 21.8943 3.20435 22.2104 4 22.2104H20C20.7956 22.2104 21.5587 21.8943 22.1213 21.3317C22.6839 20.7691 23 20.0061 23 19.2104V11.2104C23 10.4148 22.6839 9.6517 22.1213 9.08909C21.5587 8.52648 20.7956 8.21041 20 8.21041Z" fill="#FFE6E6"/>
</svg>
