<svg width="24" height="25" viewBox="0 0 24 25" fill="none" xmlns="http://www.w3.org/2000/svg">
<g id="Icons">
<path id="Vector" d="M10.46 6.21083L11 5.62083V9.21083C11 9.47605 11.1054 9.7304 11.2929 9.91794C11.4804 10.1055 11.7348 10.2108 12 10.2108C12.2652 10.2108 12.5196 10.1055 12.7071 9.91794C12.8946 9.7304 13 9.47605 13 9.21083V5.62083L13.54 6.17083C13.6308 6.27336 13.7416 6.35614 13.8657 6.41407C13.9898 6.47199 14.1244 6.50381 14.2613 6.50756C14.3982 6.51131 14.5344 6.48691 14.6615 6.43587C14.7885 6.38483 14.9038 6.30823 15 6.21083C15.0937 6.11787 15.1681 6.00727 15.2189 5.88541C15.2697 5.76355 15.2958 5.63285 15.2958 5.50083C15.2958 5.36882 15.2697 5.23812 15.2189 5.11626C15.1681 4.9944 15.0937 4.8838 15 4.79083L12.71 2.50083C12.6149 2.40979 12.5028 2.33843 12.38 2.29083C12.1365 2.19082 11.8635 2.19082 11.62 2.29083C11.4972 2.33843 11.3851 2.40979 11.29 2.50083L9 4.75083C8.80639 4.94444 8.69762 5.20703 8.69762 5.48083C8.69762 5.75464 8.80639 6.01723 9 6.21083C9.19361 6.40444 9.4562 6.51321 9.73 6.51321C10.0038 6.51321 10.2664 6.40444 10.46 6.21083ZM12 12.2108C11.4067 12.2108 10.8266 12.3868 10.3333 12.7164C9.83994 13.0461 9.45542 13.5146 9.22836 14.0628C9.0013 14.611 8.94189 15.2142 9.05764 15.7961C9.1734 16.378 9.45912 16.9126 9.87868 17.3322C10.2982 17.7517 10.8328 18.0374 11.4147 18.1532C11.9967 18.2689 12.5999 18.2095 13.1481 17.9825C13.6962 17.7554 14.1648 17.3709 14.4944 16.8775C14.8241 16.3842 15 15.8042 15 15.2108C15 14.4152 14.6839 13.6521 14.1213 13.0895C13.5587 12.5269 12.7956 12.2108 12 12.2108ZM12 16.2108C11.8022 16.2108 11.6089 16.1522 11.4444 16.0423C11.28 15.9324 11.1518 15.7762 11.0761 15.5935C11.0004 15.4108 10.9806 15.2097 11.0192 15.0157C11.0578 14.8218 11.153 14.6436 11.2929 14.5037C11.4327 14.3639 11.6109 14.2686 11.8049 14.23C11.9989 14.1915 12.2 14.2113 12.3827 14.287C12.5654 14.3626 12.7216 14.4908 12.8315 14.6553C12.9414 14.8197 13 15.0131 13 15.2108C13 15.4761 12.8946 15.7304 12.7071 15.9179C12.5196 16.1055 12.2652 16.2108 12 16.2108ZM5 15.2108C5 15.4086 5.05865 15.602 5.16853 15.7664C5.27841 15.9309 5.43459 16.059 5.61732 16.1347C5.80004 16.2104 6.00111 16.2302 6.19509 16.1916C6.38907 16.153 6.56725 16.0578 6.70711 15.9179C6.84696 15.7781 6.9422 15.5999 6.98079 15.4059C7.01937 15.2119 6.99957 15.0109 6.92388 14.8281C6.84819 14.6454 6.72002 14.4892 6.55557 14.3794C6.39112 14.2695 6.19778 14.2108 6 14.2108C5.73478 14.2108 5.48043 14.3162 5.29289 14.5037C5.10536 14.6913 5 14.9456 5 15.2108ZM19 15.2108C19 15.0131 18.9414 14.8197 18.8315 14.6553C18.7216 14.4908 18.5654 14.3626 18.3827 14.287C18.2 14.2113 17.9989 14.1915 17.8049 14.23C17.6109 14.2686 17.4327 14.3639 17.2929 14.5037C17.153 14.6436 17.0578 14.8218 17.0192 15.0157C16.9806 15.2097 17.0004 15.4108 17.0761 15.5935C17.1518 15.7762 17.28 15.9324 17.4444 16.0423C17.6089 16.1522 17.8022 16.2108 18 16.2108C18.2652 16.2108 18.5196 16.1055 18.7071 15.9179C18.8946 15.7304 19 15.4761 19 15.2108ZM20 8.21083H16C15.7348 8.21083 15.4804 8.31619 15.2929 8.50373C15.1054 8.69126 15 8.94562 15 9.21083C15 9.47605 15.1054 9.7304 15.2929 9.91794C15.4804 10.1055 15.7348 10.2108 16 10.2108H20C20.2652 10.2108 20.5196 10.3162 20.7071 10.5037C20.8946 10.6913 21 10.9456 21 11.2108V19.2108C21 19.4761 20.8946 19.7304 20.7071 19.9179C20.5196 20.1055 20.2652 20.2108 20 20.2108H4C3.73478 20.2108 3.48043 20.1055 3.29289 19.9179C3.10536 19.7304 3 19.4761 3 19.2108V11.2108C3 10.9456 3.10536 10.6913 3.29289 10.5037C3.48043 10.3162 3.73478 10.2108 4 10.2108H8C8.26522 10.2108 8.51957 10.1055 8.70711 9.91794C8.89464 9.7304 9 9.47605 9 9.21083C9 8.94562 8.89464 8.69126 8.70711 8.50373C8.51957 8.31619 8.26522 8.21083 8 8.21083H4C3.20435 8.21083 2.44129 8.5269 1.87868 9.08951C1.31607 9.65212 1 10.4152 1 11.2108V19.2108C1 20.0065 1.31607 20.7695 1.87868 21.3322C2.44129 21.8948 3.20435 22.2108 4 22.2108H20C20.7956 22.2108 21.5587 21.8948 22.1213 21.3322C22.6839 20.7695 23 20.0065 23 19.2108V11.2108C23 10.4152 22.6839 9.65212 22.1213 9.08951C21.5587 8.5269 20.7956 8.21083 20 8.21083Z" fill="#0063FF"/>
</g>
</svg>
