<svg width="13" height="19" viewBox="0 0 13 19" fill="none" xmlns="http://www.w3.org/2000/svg">
<path d="M8.51406 18.7842L1.78906 11.7842V9.78418H5.28906C6.1724 9.78418 6.9349 9.49668 7.57656 8.92168C8.21823 8.34668 8.60573 7.63418 8.73906 6.78418H0.789062V4.78418H8.43906C8.15573 4.20085 7.7349 3.72168 7.17656 3.34668C6.61823 2.97168 5.98906 2.78418 5.28906 2.78418H0.789062V0.78418H12.7891V2.78418H9.53906C9.7724 3.06751 9.98073 3.37585 10.1641 3.70918C10.3474 4.04251 10.4891 4.40085 10.5891 4.78418H12.7891V6.78418H10.7641C10.6307 8.20085 10.0474 9.38835 9.01406 10.3467C7.98073 11.305 6.73906 11.7842 5.28906 11.7842H4.56406L11.2891 18.7842H8.51406Z" fill="#9DB9CE"/>
</svg>
