<svg width="16" height="16" viewBox="0 0 16 16" fill="none" xmlns="http://www.w3.org/2000/svg">
<path d="M12.8138 4.00045H8.44045C8.26364 4.00045 8.09407 4.07069 7.96904 4.19571C7.84402 4.32074 7.77378 4.4903 7.77378 4.66712C7.77378 4.84393 7.84402 5.0135 7.96904 5.13852C8.09407 5.26354 8.26364 5.33378 8.44045 5.33378H12.8138C12.9517 5.33378 13.084 5.38857 13.1815 5.48609C13.279 5.58361 13.3338 5.71587 13.3338 5.85378V6.37378H10.8138C10.637 6.37378 10.4674 6.44402 10.3424 6.56904C10.2174 6.69407 10.1471 6.86364 10.1471 7.04045C10.1471 7.21726 10.2174 7.38683 10.3424 7.51185C10.4674 7.63688 10.637 7.70712 10.8138 7.70712H12.3938L11.9271 8.16712C11.8646 8.22909 11.815 8.30282 11.7812 8.38406C11.7473 8.4653 11.7299 8.55244 11.7299 8.64045C11.7299 8.72846 11.7473 8.81559 11.7812 8.89683C11.815 8.97807 11.8646 9.05181 11.9271 9.11378C11.9891 9.17627 12.0628 9.22586 12.1441 9.25971C12.2253 9.29356 12.3124 9.31098 12.4004 9.31098C12.4885 9.31098 12.5756 9.29356 12.6568 9.25971C12.7381 9.22586 12.8118 9.17627 12.8738 9.11378L14.1271 7.86045C14.2805 7.70763 14.4027 7.52651 14.4871 7.32712V7.26045C14.5977 7.03836 14.6591 6.79506 14.6671 6.54712V5.88045C14.6698 5.63507 14.6238 5.3916 14.5319 5.16406C14.4401 4.93651 14.3041 4.7294 14.1318 4.55465C13.9595 4.37989 13.7544 4.24096 13.5282 4.14584C13.302 4.05073 13.0592 4.00131 12.8138 4.00045ZM2.47378 1.52712C2.41162 1.46496 2.33783 1.41565 2.25662 1.38201C2.1754 1.34837 2.08836 1.33105 2.00045 1.33105C1.91254 1.33105 1.8255 1.34837 1.74428 1.38201C1.66307 1.41565 1.58927 1.46496 1.52712 1.52712C1.40158 1.65265 1.33105 1.82291 1.33105 2.00045C1.33105 2.17798 1.40158 2.34825 1.52712 2.47378L3.42712 4.36712C3.19099 4.53629 2.99879 4.75952 2.86658 5.01816C2.73436 5.27679 2.66597 5.56331 2.66712 5.85378V6.52045C2.66731 6.77353 2.72187 7.02362 2.82712 7.25378V7.29378C2.91219 7.49477 3.03431 7.67795 3.18712 7.83378L6.79378 11.4338V14.0004C6.79356 14.1137 6.82221 14.2252 6.87703 14.3244C6.93185 14.4235 7.01104 14.5071 7.10712 14.5671C7.21321 14.6329 7.33563 14.6675 7.46045 14.6671C7.56481 14.6665 7.66757 14.6414 7.76045 14.5938L10.1338 13.4071C10.2437 13.3517 10.3362 13.267 10.4009 13.1622C10.4656 13.0575 10.5001 12.9369 10.5004 12.8138V11.4804L13.5071 14.4938C13.5691 14.5563 13.6428 14.6059 13.7241 14.6397C13.8053 14.6736 13.8924 14.691 13.9804 14.691C14.0685 14.691 14.1556 14.6736 14.2368 14.6397C14.3181 14.6059 14.3918 14.5563 14.4538 14.4938C14.5163 14.4318 14.5659 14.3581 14.5997 14.2768C14.6336 14.1956 14.651 14.1085 14.651 14.0204C14.651 13.9324 14.6336 13.8453 14.5997 13.7641C14.5659 13.6828 14.5163 13.6091 14.4538 13.5471L2.47378 1.52712ZM4.00045 5.85378C3.99964 5.74915 4.03126 5.64683 4.09094 5.56088C4.15063 5.47494 4.23546 5.40958 4.33378 5.37378L4.39378 5.33378L5.43378 6.37378H4.00045V5.85378ZM9.38045 10.7138C9.31866 10.7761 9.26978 10.85 9.2366 10.9312C9.20343 11.0124 9.18661 11.0994 9.18712 11.1871V12.4004L8.14712 12.9204V11.1871C8.14762 11.0994 8.13081 11.0124 8.09763 10.9312C8.06445 10.85 8.01557 10.7761 7.95378 10.7138L4.94045 7.70712H6.76712L9.58045 10.5204L9.38045 10.7138Z" fill="#921B1D"/>
</svg>
