<svg width="14" height="14" viewBox="0 0 14 14" fill="none" xmlns="http://www.w3.org/2000/svg">
<path d="M11.8138 2.99947H7.44045C7.26364 2.99947 7.09407 3.06971 6.96904 3.19474C6.84402 3.31976 6.77378 3.48933 6.77378 3.66614C6.77378 3.84295 6.84402 4.01252 6.96904 4.13754C7.09407 4.26257 7.26364 4.33281 7.44045 4.33281H11.8138C11.9517 4.33281 12.084 4.38759 12.1815 4.48511C12.279 4.58263 12.3338 4.71489 12.3338 4.85281V5.37281H9.81378C9.63697 5.37281 9.4674 5.44304 9.34238 5.56807C9.21735 5.69309 9.14712 5.86266 9.14712 6.03947C9.14712 6.21628 9.21735 6.38585 9.34238 6.51088C9.4674 6.6359 9.63697 6.70614 9.81378 6.70614H11.3938L10.9271 7.16614C10.8646 7.22811 10.815 7.30185 10.7812 7.38309C10.7473 7.46433 10.7299 7.55146 10.7299 7.63947C10.7299 7.72748 10.7473 7.81462 10.7812 7.89586C10.815 7.9771 10.8646 8.05083 10.9271 8.11281C10.9891 8.17529 11.0628 8.22489 11.1441 8.25873C11.2253 8.29258 11.3124 8.31 11.4004 8.31C11.4885 8.31 11.5756 8.29258 11.6568 8.25873C11.7381 8.22489 11.8118 8.17529 11.8738 8.11281L13.1271 6.85947C13.2805 6.70666 13.4027 6.52553 13.4871 6.32614V6.25947C13.5977 6.03739 13.6591 5.79409 13.6671 5.54614V4.87947C13.6698 4.6341 13.6238 4.39062 13.5319 4.16308C13.4401 3.93554 13.3041 3.72842 13.1318 3.55367C12.9595 3.37892 12.7544 3.23998 12.5282 3.14487C12.302 3.04975 12.0592 3.00034 11.8138 2.99947ZM1.47378 0.526139C1.41162 0.46398 1.33783 0.414673 1.25662 0.381033C1.1754 0.347392 1.08836 0.330078 1.00045 0.330078C0.912543 0.330078 0.825498 0.347392 0.744283 0.381033C0.663068 0.414673 0.589275 0.46398 0.527116 0.526139C0.40158 0.651675 0.331055 0.821938 0.331055 0.999473C0.331055 1.17701 0.40158 1.34727 0.527116 1.47281L2.42712 3.36614C2.19099 3.53531 1.99879 3.75854 1.86658 4.01718C1.73436 4.27581 1.66597 4.56234 1.66712 4.85281V5.51947C1.66731 5.77256 1.72187 6.02264 1.82712 6.25281V6.29281C1.91219 6.49379 2.03431 6.67698 2.18712 6.83281L5.79378 10.4328V12.9995C5.79356 13.1128 5.82221 13.2243 5.87703 13.3234C5.93185 13.4226 6.01104 13.5061 6.10712 13.5661C6.21321 13.6319 6.33563 13.6665 6.46045 13.6661C6.56481 13.6655 6.66757 13.6404 6.76045 13.5928L9.13378 12.4061C9.24373 12.3507 9.33618 12.266 9.4009 12.1613C9.46562 12.0565 9.50008 11.9359 9.50045 11.8128V10.4795L12.5071 13.4928C12.5691 13.5553 12.6428 13.6049 12.7241 13.6387C12.8053 13.6726 12.8924 13.69 12.9804 13.69C13.0685 13.69 13.1556 13.6726 13.2368 13.6387C13.3181 13.6049 13.3918 13.5553 13.4538 13.4928C13.5163 13.4308 13.5659 13.3571 13.5997 13.2759C13.6336 13.1946 13.651 13.1075 13.651 13.0195C13.651 12.9315 13.6336 12.8443 13.5997 12.7631C13.5659 12.6818 13.5163 12.6081 13.4538 12.5461L1.47378 0.526139ZM3.00045 4.85281C2.99964 4.74817 3.03126 4.64585 3.09094 4.55991C3.15063 4.47396 3.23546 4.4086 3.33378 4.37281L3.39378 4.33281L4.43378 5.37281H3.00045V4.85281ZM8.38045 9.71281C8.31866 9.7751 8.26978 9.84898 8.2366 9.9302C8.20343 10.0114 8.18661 10.0984 8.18712 10.1861V11.3995L7.14712 11.9195V10.1861C7.14762 10.0984 7.13081 10.0114 7.09763 9.9302C7.06445 9.84898 7.01557 9.7751 6.95378 9.71281L3.94045 6.70614H5.76712L8.58045 9.51947L8.38045 9.71281Z" fill="black" fill-opacity="0.4"/>
</svg>
