<svg width="20" height="20" viewBox="0 0 20 20" fill="none" xmlns="http://www.w3.org/2000/svg">
<path d="M16.2368 16.7949L11.0189 11.5769C10.6022 11.9317 10.1231 12.2063 9.58139 12.4007C9.03973 12.5951 8.49542 12.6924 7.94848 12.6924C6.61375 12.6924 5.4841 12.2303 4.55952 11.3063C3.63507 10.3823 3.17285 9.25334 3.17285 7.91945C3.17285 6.58542 3.63487 5.45549 4.55889 4.52965C5.48292 3.60396 6.61188 3.14111 7.94577 3.14111C9.2798 3.14111 10.4097 3.60334 11.3356 4.52778C12.2613 5.45236 12.7241 6.58202 12.7241 7.91674C12.7241 8.49577 12.6215 9.05611 12.4164 9.59778C12.2113 10.1394 11.942 10.6026 11.6087 10.9872L16.8266 16.2053L16.2368 16.7949ZM7.94848 11.859C9.05417 11.859 9.98764 11.4784 10.7489 10.7172C11.5101 9.95604 11.8908 9.02257 11.8908 7.91674C11.8908 6.8109 11.5101 5.87743 10.7489 5.11632C9.98764 4.35507 9.05417 3.97445 7.94848 3.97445C6.84264 3.97445 5.90917 4.35507 5.14806 5.11632C4.38681 5.87743 4.00618 6.8109 4.00618 7.91674C4.00618 9.02257 4.38681 9.95604 5.14806 10.7172C5.90917 11.4784 6.84264 11.859 7.94848 11.859Z" fill="#1C1C1C" fill-opacity="0.6"/>
</svg>
