<svg width="24" height="25" viewBox="0 0 24 25" fill="none" xmlns="http://www.w3.org/2000/svg">
<path d="M21.32 9.76051L19.43 9.13051L20.32 7.35051C20.4102 7.1642 20.4404 6.95448 20.4064 6.75029C20.3723 6.54609 20.2758 6.3575 20.13 6.21051L18 4.08051C17.8522 3.9326 17.6618 3.83472 17.4555 3.80064C17.2493 3.76656 17.0375 3.79799 16.85 3.89051L15.07 4.78051L14.44 2.89051C14.3735 2.69351 14.2472 2.52214 14.0787 2.40026C13.9102 2.27838 13.7079 2.21206 13.5 2.21051H10.5C10.2904 2.20997 10.0858 2.27533 9.91537 2.39736C9.7449 2.51938 9.61709 2.69189 9.55 2.89051L8.92 4.78051L7.14 3.89051C6.95369 3.80029 6.74397 3.77012 6.53978 3.80415C6.33558 3.83818 6.14699 3.93474 6 4.08051L3.87 6.21051C3.72209 6.35828 3.62421 6.54869 3.59013 6.75497C3.55605 6.96125 3.58748 7.17302 3.68 7.36051L4.57 9.14051L2.68 9.77051C2.483 9.83705 2.31163 9.96334 2.18975 10.1318C2.06787 10.3003 2.00155 10.5026 2 10.7105V13.7105C1.99946 13.9202 2.06482 14.1247 2.18685 14.2951C2.30887 14.4656 2.48138 14.5934 2.68 14.6605L4.57 15.2905L3.68 17.0705C3.58978 17.2568 3.55961 17.4665 3.59364 17.6707C3.62767 17.8749 3.72423 18.0635 3.87 18.2105L6 20.3405C6.14777 20.4884 6.33818 20.5863 6.54446 20.6204C6.75074 20.6545 6.96251 20.623 7.15 20.5305L8.93 19.6405L9.56 21.5305C9.62709 21.7291 9.7549 21.9016 9.92537 22.0237C10.0958 22.1457 10.3004 22.2111 10.51 22.2105H13.51C13.7196 22.2111 13.9242 22.1457 14.0946 22.0237C14.2651 21.9016 14.3929 21.7291 14.46 21.5305L15.09 19.6405L16.87 20.5305C17.0551 20.6185 17.2628 20.6474 17.4649 20.6134C17.667 20.5794 17.8538 20.4842 18 20.3405L20.13 18.2105C20.2779 18.0627 20.3758 17.8723 20.4099 17.6661C20.444 17.4598 20.4125 17.248 20.32 17.0605L19.43 15.2805L21.32 14.6505C21.517 14.584 21.6884 14.4577 21.8103 14.2892C21.9321 14.1207 21.9985 13.9184 22 13.7105V10.7105C22.0005 10.5009 21.9352 10.2964 21.8132 10.1259C21.6911 9.95541 21.5186 9.8276 21.32 9.76051ZM20 12.9905L18.8 13.3905C18.5241 13.48 18.2709 13.6285 18.0581 13.8256C17.8452 14.0227 17.6778 14.2638 17.5675 14.5321C17.4571 14.8004 17.4064 15.0895 17.419 15.3793C17.4315 15.6691 17.5069 15.9527 17.64 16.2105L18.21 17.3505L17.11 18.4505L16 17.8505C15.7436 17.7227 15.4627 17.6516 15.1763 17.6418C14.89 17.632 14.6049 17.6839 14.3403 17.7939C14.0758 17.9039 13.8379 18.0695 13.6429 18.2794C13.4479 18.4892 13.3003 18.7386 13.21 19.0105L12.81 20.2105H11.22L10.82 19.0105C10.7305 18.7346 10.582 18.4814 10.3849 18.2686C10.1878 18.0557 9.94671 17.8883 9.67842 17.778C9.41014 17.6676 9.12105 17.6169 8.83123 17.6295C8.5414 17.642 8.25777 17.7174 8 17.8505L6.86 18.4205L5.76 17.3205L6.36 16.2105C6.4931 15.9527 6.56852 15.6691 6.58105 15.3793C6.59358 15.0895 6.5429 14.8004 6.43254 14.5321C6.32218 14.2638 6.15478 14.0227 5.94195 13.8256C5.72912 13.6285 5.47595 13.48 5.2 13.3905L4 12.9905V11.4305L5.2 11.0305C5.47595 10.941 5.72912 10.7925 5.94195 10.5954C6.15478 10.3983 6.32218 10.1572 6.43254 9.88893C6.5429 9.62065 6.59358 9.33156 6.58105 9.04174C6.56852 8.75191 6.4931 8.46828 6.36 8.21051L5.79 7.10051L6.89 6.00051L8 6.57051C8.25777 6.70361 8.5414 6.77903 8.83123 6.79156C9.12105 6.80409 9.41014 6.75341 9.67842 6.64305C9.94671 6.53269 10.1878 6.36529 10.3849 6.15246C10.582 5.93963 10.7305 5.68646 10.82 5.41051L11.22 4.21051H12.78L13.18 5.41051C13.2695 5.68646 13.418 5.93963 13.6151 6.15246C13.8122 6.36529 14.0533 6.53269 14.3216 6.64305C14.5899 6.75341 14.879 6.80409 15.1688 6.79156C15.4586 6.77903 15.7422 6.70361 16 6.57051L17.14 6.00051L18.24 7.10051L17.64 8.21051C17.5122 8.46696 17.4411 8.74786 17.4313 9.0342C17.4215 9.32054 17.4734 9.60564 17.5834 9.8702C17.6934 10.1347 17.8589 10.3726 18.0688 10.5676C18.2787 10.7626 18.5281 10.9102 18.8 11.0005L20 11.4005V12.9905ZM12 8.21051C11.2089 8.21051 10.4355 8.44511 9.77772 8.88464C9.11993 9.32416 8.60724 9.94887 8.30448 10.6798C8.00173 11.4107 7.92252 12.215 8.07686 12.9909C8.2312 13.7668 8.61217 14.4795 9.17158 15.0389C9.73099 15.5984 10.4437 15.9793 11.2196 16.1337C11.9956 16.288 12.7998 16.2088 13.5307 15.906C14.2616 15.6033 14.8864 15.0906 15.3259 14.4328C15.7654 13.775 16 13.0016 16 12.2105C16 11.1496 15.5786 10.1322 14.8284 9.38209C14.0783 8.63194 13.0609 8.21051 12 8.21051ZM12 14.2105C11.6044 14.2105 11.2178 14.0932 10.8889 13.8735C10.56 13.6537 10.3036 13.3413 10.1522 12.9759C10.0009 12.6104 9.96126 12.2083 10.0384 11.8203C10.1156 11.4324 10.3061 11.076 10.5858 10.7963C10.8655 10.5166 11.2219 10.3261 11.6098 10.2489C11.9978 10.1718 12.3999 10.2114 12.7654 10.3628C13.1308 10.5141 13.4432 10.7705 13.6629 11.0994C13.8827 11.4283 14 11.815 14 12.2105C14 12.7409 13.7893 13.2497 13.4142 13.6247C13.0391 13.9998 12.5304 14.2105 12 14.2105Z" fill="#FFE6E6"/>
</svg>
