<svg width="24" height="25" viewBox="0 0 24 25" fill="none" xmlns="http://www.w3.org/2000/svg">
<path d="M14.81 12.4905C15.443 11.8108 15.7996 10.9193 15.81 9.99053C15.81 8.98801 15.4118 8.02655 14.7029 7.31766C13.994 6.60877 13.0325 6.21053 12.03 6.21053C11.0275 6.21053 10.066 6.60877 9.35714 7.31766C8.64825 8.02655 8.25 8.98801 8.25 9.99053C8.26044 10.9193 8.61702 11.8108 9.25 12.4905C8.36865 12.9294 7.61022 13.5805 7.04292 14.3852C6.47561 15.1899 6.11723 16.123 6 17.1005C5.97083 17.3657 6.0482 17.6317 6.21511 17.8399C6.38202 18.048 6.62478 18.1814 6.89 18.2105C7.15522 18.2397 7.42116 18.1623 7.62932 17.9954C7.83749 17.8285 7.97083 17.5857 8 17.3205C8.11933 16.3517 8.58885 15.4599 9.32009 14.8132C10.0513 14.1665 10.9938 13.8095 11.97 13.8095C12.9462 13.8095 13.8887 14.1665 14.6199 14.8132C15.3512 15.4599 15.8207 16.3517 15.94 17.3205C15.9678 17.5769 16.0936 17.8127 16.2911 17.9785C16.4887 18.1444 16.7426 18.2275 17 18.2105H17.11C17.3721 18.1804 17.6117 18.0478 17.7766 17.8418C17.9414 17.6357 18.0181 17.3729 17.99 17.1105C17.8815 16.1381 17.5344 15.2076 16.9796 14.4016C16.4248 13.5956 15.6796 12.9391 14.81 12.4905ZM12 11.7705C11.6479 11.7705 11.3038 11.6661 11.0111 11.4705C10.7184 11.275 10.4902 10.997 10.3555 10.6717C10.2208 10.3464 10.1855 9.98855 10.2542 9.64326C10.3229 9.29798 10.4924 8.98081 10.7414 8.73188C10.9903 8.48294 11.3075 8.31341 11.6527 8.24473C11.998 8.17605 12.3559 8.2113 12.6812 8.34602C13.0064 8.48074 13.2844 8.70889 13.48 9.00161C13.6756 9.29433 13.78 9.63847 13.78 9.99053C13.78 10.4626 13.5925 10.9154 13.2586 11.2492C12.9248 11.583 12.4721 11.7705 12 11.7705ZM19 2.21053H5C4.20435 2.21053 3.44129 2.5266 2.87868 3.08921C2.31607 3.65181 2 4.41488 2 5.21053V19.2105C2 20.0062 2.31607 20.7692 2.87868 21.3318C3.44129 21.8945 4.20435 22.2105 5 22.2105H19C19.7956 22.2105 20.5587 21.8945 21.1213 21.3318C21.6839 20.7692 22 20.0062 22 19.2105V5.21053C22 4.41488 21.6839 3.65181 21.1213 3.08921C20.5587 2.5266 19.7956 2.21053 19 2.21053ZM20 19.2105C20 19.4757 19.8946 19.7301 19.7071 19.9176C19.5196 20.1052 19.2652 20.2105 19 20.2105H5C4.73478 20.2105 4.48043 20.1052 4.29289 19.9176C4.10536 19.7301 4 19.4757 4 19.2105V5.21053C4 4.94531 4.10536 4.69096 4.29289 4.50342C4.48043 4.31588 4.73478 4.21053 5 4.21053H19C19.2652 4.21053 19.5196 4.31588 19.7071 4.50342C19.8946 4.69096 20 4.94531 20 5.21053V19.2105Z" fill="#FFE6E6"/>
</svg>
