<svg width="24" height="25" viewBox="0 0 24 25" fill="none" xmlns="http://www.w3.org/2000/svg">
<path d="M14.81 12.4909C15.443 11.8112 15.7996 10.9197 15.81 9.99094C15.81 8.98842 15.4118 8.02696 14.7029 7.31807C13.994 6.60919 13.0325 6.21094 12.03 6.21094C11.0275 6.21094 10.066 6.60919 9.35714 7.31807C8.64825 8.02696 8.25 8.98842 8.25 9.99094C8.26044 10.9197 8.61702 11.8112 9.25 12.4909C8.36865 12.9298 7.61022 13.5809 7.04292 14.3856C6.47561 15.1903 6.11723 16.1234 6 17.1009C5.97083 17.3662 6.0482 17.6321 6.21511 17.8403C6.38202 18.0484 6.62478 18.1818 6.89 18.2109C7.15522 18.2401 7.42116 18.1627 7.62932 17.9958C7.83749 17.8289 7.97083 17.5862 8 17.3209C8.11933 16.3521 8.58885 15.4603 9.32009 14.8136C10.0513 14.1669 10.9938 13.8099 11.97 13.8099C12.9462 13.8099 13.8887 14.1669 14.6199 14.8136C15.3512 15.4603 15.8207 16.3521 15.94 17.3209C15.9678 17.5774 16.0936 17.8131 16.2911 17.979C16.4887 18.1448 16.7426 18.2279 17 18.2109H17.11C17.3721 18.1808 17.6117 18.0482 17.7766 17.8422C17.9414 17.6361 18.0181 17.3733 17.99 17.1109C17.8815 16.1385 17.5344 15.208 16.9796 14.402C16.4248 13.596 15.6796 12.9395 14.81 12.4909ZM12 11.7709C11.6479 11.7709 11.3038 11.6665 11.0111 11.471C10.7184 11.2754 10.4902 10.9974 10.3555 10.6721C10.2208 10.3469 10.1855 9.98896 10.2542 9.64368C10.3229 9.29839 10.4924 8.98123 10.7414 8.73229C10.9903 8.48335 11.3075 8.31382 11.6527 8.24514C11.998 8.17646 12.3559 8.21171 12.6812 8.34643C13.0064 8.48116 13.2844 8.7093 13.48 9.00202C13.6756 9.29474 13.78 9.63889 13.78 9.99094C13.78 10.463 13.5925 10.9158 13.2586 11.2496C12.9248 11.5834 12.4721 11.7709 12 11.7709ZM19 2.21094H5C4.20435 2.21094 3.44129 2.52701 2.87868 3.08962C2.31607 3.65223 2 4.41529 2 5.21094V19.2109C2 20.0066 2.31607 20.7696 2.87868 21.3323C3.44129 21.8949 4.20435 22.2109 5 22.2109H19C19.7956 22.2109 20.5587 21.8949 21.1213 21.3323C21.6839 20.7696 22 20.0066 22 19.2109V5.21094C22 4.41529 21.6839 3.65223 21.1213 3.08962C20.5587 2.52701 19.7956 2.21094 19 2.21094ZM20 19.2109C20 19.4762 19.8946 19.7305 19.7071 19.918C19.5196 20.1056 19.2652 20.2109 19 20.2109H5C4.73478 20.2109 4.48043 20.1056 4.29289 19.918C4.10536 19.7305 4 19.4762 4 19.2109V5.21094C4 4.94572 4.10536 4.69137 4.29289 4.50383C4.48043 4.31629 4.73478 4.21094 5 4.21094H19C19.2652 4.21094 19.5196 4.31629 19.7071 4.50383C19.8946 4.69137 20 4.94572 20 5.21094V19.2109Z" fill="#0063FF"/>
</svg>
